<?xml version="1.0" encoding="utf-8"?>
<!-- Generator: Adobe Illustrator 27.3.0, SVG Export Plug-In . SVG Version: 6.00 Build 0)  -->
<svg version="1.1" id="Camada_1" xmlns="http://www.w3.org/2000/svg" xmlns:xlink="http://www.w3.org/1999/xlink" x="0px" y="0px"
	 viewBox="0 0 1920 1080" style="enable-background:new 0 0 1920 1080;" xml:space="preserve">
<style type="text/css">
	.st0{fill:#030D18;}
</style>
<path class="st0" d="M956.31,388.96c-8.9,2.6-18.49,4.73-28.11,6.45c9.89-5.04,18.37-11.44,24.39-19.6
	c0.71-0.97-0.88-1.89-1.85-1.17c-13.65,10.14-30.07,15.47-47.35,19.28c5.12-6.51,9.1-13.54,10.36-20.11
	c0.27-1.41-1.53-3.12-3.31-2.09c-9.89,5.74-17.1,14.7-25.14,22.04c-1.23,1.12-2.47,2.33-3.74,3.53c3.13-6.47,5.08-12.93,5.68-16.77
	c0.28-1.77-2.76-2.5-4.11-1.4c-8.3,6.83-13.79,16.78-22.82,22.87c-0.02,0-0.04,0.01-0.07,0.01c0.42-0.47,0.84-0.94,1.26-1.45
	c0.62-0.74,0.21-1.83-0.65-2.35c0.76-4.79,0.62-9.7,0.04-14.07c-0.31-2.37-4.88-3.39-5.53-0.61c-1.21,5.12-4.71,10.06-8.07,14.49
	c-0.46,0.61-0.98,1.18-1.5,1.76c0.68-2.16,1.26-4.34,1.7-6.54c0.98-4.93-7.37-7.04-9.29-2.1c-1.86,4.8-4.98,8.92-8.99,12.73
	c-1.47,1.4-3.32,2.72-5.1,4.09c-0.41-4.72-2.3-9.28-5.71-12.68c-1.07-1.07-3.17-0.39-3.6,0.78c-1.38,3.83-2.22,7.78-3.67,11.6
	c-0.59,1.55-1.38,3.05-2.19,4.53c-1.32,0.22-2.44,1.04-3.19,1.9c-1.17,1.34-1.7,2.57-1.74,3.7c-2.17,0.78-4.13,1.6-5.53,2.59
	c-1.89,1.33-3.33,2.87-4.19,4.8c-0.38,0.86-0.62,1.63-0.82,2.38c-16.18,12.36-33.49,27.5-53.3,35.9c-1.17,0.37-2.32,0.75-3.45,1.13
	c-0.29,0.1-0.48,0.27-0.59,0.46c-14.11,5.22-29.48,6.82-46.6,1.55c1.05-2.22,0.55-5.15-2.13-6.71c-1.63-0.95-3.16-2.08-4.62-3.27
	c2.05,0.94,4.28,1.62,6.59,2.02c4.89,0.85,10.42,0.63,13.67,4.35c1.25,1.43,3.33,1.35,4.6,0c2.92-3.12,2.01-6.05-0.42-8.46
	c3.13,0.84,6.39,1.35,9.29,1.68c8.4,0.96,15.02-1.03,21.95-4.73c1.1-0.59,0.62-1.87-0.65-1.96c-2.17-0.14-4.4-0.42-6.63-0.74
	c7.02-2.44,13.63-6.34,16.39-12.16c0.5-1.05-0.92-1.81-2.02-1.65c-5.48,0.78-10.54,2.76-15.88,3.99c2.36-1.73,3.3-4.83,2.18-7.42
	c3.8-0.08,7.65-0.47,11.64-1.19c1.65-0.3,2.08-2.45,0.49-3.07c-3.7-1.44-7.42-2.74-11.15-3.99c11.93,0.34,39.56,0.38,36.21-7.62
	c-2.08-4.97-8.24-4.98-13.87-5.44c5.69-2.95,11.02-6.63,15.84-11.35c0.53-0.52,0.05-1.4-0.85-1.19c-5.7,1.31-10.92,3.38-16.14,5.51
	c2.18-4.05,3.16-8.5,1.82-12.82c-0.2-0.65-1.41-1.01-1.97-0.43c-3.83,4.01-7.42,8.12-12.04,11.5c1.75-3.35,2.75-6.93,2.69-10.66
	c-0.02-1.17-1.95-1.97-2.97-1.01c-0.01,0.01-0.02,0.02-0.03,0.03c-0.86-0.93-1.85-1.81-2.92-2.65c2.97,1.02,6.01,1.8,9.12,2.13
	c2.14,0.23,3.37-2.08,2.39-3.41c-3.49-4.71-9.01-8.53-14.52-12.04c0.87,0.3,1.71,0.57,2.47,0.83c4.95,1.64,10.01,2.81,15.32,3.31
	c6.16,0.58,10.35-0.64,16.29-1.48c1.87-0.26,1.64-2.54,0-2.91c-4.49-1.03-8.81-3.11-13.27-4.34c-1.38-0.38-2.75-0.79-4.12-1.19
	c-0.11-0.52-0.37-1.03-0.79-1.47c-0.01-0.01-0.03-0.02-0.04-0.03c10.9-2.08,22.34-4.86,30.34-11.12c1.11-0.86,0.18-2.2-1.16-2.29
	c-12.85-0.93-26.25,3.1-38.91,4.71c-0.7,0.09-1.43,0.15-2.16,0.22c0.27-0.39,0.54-0.79,0.81-1.18c4.68-6.77,11.64-12.22,16.32-18.8
	c0.76-1.07,0.12-2.77-1.5-3.02c-12.97-1.98-23.75,7.95-32.41,18.21c0.66-1.58,1.24-3.18,1.74-4.81c1.16-0.81,2.28-1.66,3.27-2.62
	c0.89-0.86,0.69-2-0.22-2.6c11.77-5.72,22.32-13.44,27.08-21.53c0.93-1.58-0.61-3.49-2.83-3.02c-9.88,2.1-18.44,7.14-27.34,11.07
	c-2.31,1.02-4.72,1.96-7.17,2.88c4.53-4.33,8.86-8.82,13.16-13.3c5.4-5.63,8.76-12.05,13.79-17.85c0.85-0.98-0.94-1.94-1.93-1.22
	c-5.26,3.82-11.43,6.49-16.68,10.32c-5.64,4.12-10.86,8.73-16.13,13.17c-0.69,0.58-1.38,1.17-2.07,1.76
	c1.46-6.48,2.95-13.04,5.73-18.95c0.42-0.89-1.33-1.47-1.87-0.65c-5.71,8.64-12.62,16-16.88,25.33c-0.65,1.43-1.45,3.04-2.21,4.73
	c0.32-7.65,0.36-15.35,0.24-22.95c-0.02-1-1.74-1.78-2.62-0.89c-7.01,7.07-11.53,15.67-13.05,24.66c-2.73-3.58-5.59-7.07-6.74-10.29
	c-1.05-2.94-5.81-3.35-7.77-0.83c-3.6,4.62-1.82,10.26,0.71,14.92c1.3,2.4,2.93,4.73,4,7.2c0.35,0.8,0.61,1.53,0.86,2.24
	c-1.6-1.57-3.11-3.2-4.5-4.91c-2.48-3.05-4.67-6.23-8.47-8.26c-0.95-0.51-2.14-0.11-2.73,0.59c-5.32,6.27-0.65,15.01,5.15,21.22
	c0,0,0,0.01,0,0.01c-1.35-0.18-2.69-0.38-3.97-0.71c-4.04-1.01-7.74-2.78-11.58-4.19c-1.06-0.39-2.22,0.25-1.96,1.23
	c1.23,4.64,6.98,9.86,13.41,12.26c-2.88,1.85-5.32,4.16-7.22,6.73c-0.53,0.72,0.35,1.55,1.28,1.37c1.26-0.24,2.5-0.54,3.71-0.9
	c-0.44,1.15-0.72,2.35-0.77,3.62c-0.11,0.27-0.25,0.53-0.29,0.82c-9.61,1.83-18.98,4.18-26.51,7.93
	c-14.87,7.42-4.8,20.37-14.03,29.12c-0.03,0.03-0.08,0.06-0.11,0.09c-5.03,1.25-10.05,1.88-16.09,2.27
	c-3.68,0.24-7.53,0.29-11.42,0.38c1.59-1.26,2.97-2.75,4-4.66c2.9-5.38,1.81-10.97,0.01-16.42c-3.37-10.21-4.77-16.42,2.02-25.74
	c0.28,0.07,0.55,0.15,0.86,0.18c1.19,0.13,2.35-0.12,3.34-0.6c-0.01,0.03-0.01,0.07-0.02,0.1c1.83-0.82,3.45-2.16,5.17-3.17
	c1.76-1.03,3.59-1.96,5.36-2.98c3.31-1.91,2.55-6.77-1.96-6.85c0.05-0.32,0.12-0.63,0.15-0.96c0.36-0.37,0.72-0.74,1.08-1.11
	c0.16,0,0.28,0.05,0.45,0.04c6.06-0.34,12.07-2.61,17.64-4.51c4.79-1.63,10.56-3.03,13.41-6.77c0.82-1.08-0.02-2.36-1.36-2.74
	c-2.14-0.61-4.43-0.59-6.73-0.29c4.35-1.34,8.52-2.99,12.33-5.23c1.13-0.67,1.2-2.38-0.42-2.66c-15.38-2.67-28.84,4.7-40.58,12.11
	c-0.11-0.08-0.18-0.2-0.29-0.28c-2-1.4-4.73-0.81-5.63,1.22c-1.34,3.05-0.41,6.56-0.5,9.75c-1.52,1.08-3.01,2.18-4.46,3.29
	c-0.73-1.41-1.77-2.71-3.13-3.79c-1.98-1.57-6.4-0.58-6.01,2.04c0.4,2.68,0.44,5.29,0.6,7.98c0.02,0.34,0.1,0.7,0.21,1.05
	c-5.38,5.58-8.9,11.88-8.39,19.68c0.53,8.13,6.62,13.31,1.36,20.87c-5.12,7.36-16,10.16-25.31,13.79c-0.96-1.57-2.75-2.8-4.89-3.52
	c-0.16-0.05-0.34-0.11-0.5-0.16c0.09,0,0.18-0.01,0.27-0.02c5.26-0.21,6.31-6.16,1.24-7.5c-4.03-1.07-7.84-1.91-11.65-2.53
	c0.99-0.25,1.97-0.49,2.97-0.74c5.72-1.4,11.16-2.99,15.73-6.21c2.87-2.02,1.32-6.27-2.24-6.95c-3.98-0.75-7.9-0.64-11.83-0.2
	c0.43-0.34,0.85-0.67,1.24-0.96c5.48-4.14,13.52-9.35,15.36-15.53c0.47-1.58-0.93-3.28-3.01-3.24c-6,0.1-12.06,3.16-17.4,6.24
	c0.23-0.75,0.46-1.5,0.69-2.25c0.9-3.02,3.95-8.89,3.39-11.77c0.09,0.48,0.99,0.34,1.01-0.11c0.19-4.91-0.31,1.73-0.5-3.93
	c-0.08-2.42-4.41-3.7-5.87-1.3c-5.11,8.39-9,17.38-12.74,26.23c-0.2,0.48-0.44,0.97-0.66,1.46c-2.3,1.44-4.4,3.03-5.81,4.75
	c-0.58-1.45-1.11-2.9-1.45-4.36c-1.12-4.88,0.23-11.66-3.61-15.75c-0.47-0.5-1.1-0.67-1.82-0.39c-6.78,2.59-7.38,11.08-7.5,16.47
	c-0.08,3.5,0.55,6.96,1.32,10.39c0,0.01,0,0.03,0.01,0.04c-2.87-3.4-5.29-7.04-8.5-10.24c-1.93-1.93-5.63-0.68-6.42,1.39
	c-2.15,5.64-0.32,12.98,3.8,19.05c-3.11-2.11-6.22-3.93-9.81-5.48c-1.8-0.77-4.09,0.18-4.09,1.92c0,5.75,3.19,11.5,7.83,16.09
	c-0.63-0.02-1.27-0.06-1.89,0c-3.65,0.32-5.97,3.1-4.16,5.94c2.47,3.88,8.61,6.85,14.76,7.77c-0.21,1.27-0.45,2.54-0.64,3.8
	c-1.78,0.93-3.45,2.05-4.95,3.41c-11.26,10.2-3.05,25.27-12.11,36.78c-1.98,2.52-4.27,4.85-6.77,7.02c-1,0.38-2,0.76-3.01,1.13
	c12.13-33.18,10.22-68.44,3.42-103.25c0.86-0.33,1.71-0.71,2.54-1.16c8.6-4.72,10.35-12.08,12.66-19.51
	c3.69-2.38,7.87-4.46,12.38-6.25c4.08,0.66,8.43,0.74,12.72,0.17c8.9-1.17,17.54-4.48,25.74-8.69c4.93-0.43,9.68-0.62,14.06-0.58
	c8.08,0.06,15.25,1.62,22.95-1.13c8.21-2.93,15.28-8.62,22.54-12.87c2.07-1.21,4.16-2.4,6.27-3.58c3.21-0.27,6.37-0.73,9.41-1.69
	c2.01-0.63,2.68-2.61,1.24-3.83c2.85-1.38,5.74-2.71,8.68-3.9c1.35,0.34,2.72,0.66,4.06,1.05c0.9,0.26,1.73,0.62,2.6,0.93
	c1.35,0.48,2.88,0.6,4.19,1.06c2.62,0.91,5.71-0.58,4.95-3.12c-0.53-1.76-1.25-3.17-2.3-4.42c0.68-0.18,1.36-0.39,2.05-0.55
	c1.16,0.47,2.29,0.86,3.21,1.18c5.2,1.8,10.24,3.67,15.9,2.51c0.94-0.19,1.27-0.95,1.14-1.65c-0.28-1.65-1.07-3.06-2.16-4.31
	c0.09,0,0.17-0.01,0.26-0.01c0.86,0.23,1.98,0.48,2.32,0.56c2.57,0.6,4.95,1.08,7.63,1.41c2.51,0.31,4.99,0.51,7.53,0.3
	c3.26-0.26,5.88-1.65,9.23-1.67c2.36-0.01,2.59-2.6,0.53-3.22c-4.02-1.21-6.67-3.95-10.89-5.08c-3.63-0.97-7.84-1.75-11.68-1.63
	c-0.16,0-0.31,0.03-0.46,0.04c1.65-1.27,3.21-2.6,4.37-4.23c0.33-0.47,0-0.97-0.57-1.15c-4.43-1.38-9.19-0.13-13.36,1.45
	c-3.67,1.4-7.8,3.21-9.07,6.2c-1.58-0.33-3.2-0.5-4.68-0.38c0.19-0.88-0.35-1.87-1.55-2.1l-0.19-0.04
	c-2.78-1.8-7.89-0.72-10.72,0.36c-3.44,1.31-7.72,4.52-8.1,7.91c-1.2,1.41-1.48,3.44-0.73,5.07c-1.4,0.48-2.78,1.02-4.17,1.54
	c1.05-1.18,1.12-3.12-0.31-4.03c-4.58-2.92-10.88-1.48-14.62,1.84c-1.95,1.73-3.29,3.98-3.24,6.36c-5.81,1.52-11.4,4.21-16.08,6.81
	c-1.18,0.65-0.47,2.2,0.98,1.91c3.13-0.63,6.34-0.87,9.59-0.99c-7.14,4.22-14.55,8.34-21.23,9.38c-4.56,0.71-9.79-0.03-14.76-0.38
	c5.05-3.23,9.86-6.51,14.36-9.47c19.97-13.15,32.89-33.09,56.12-42.41c10.92-4.39,82.7-32.88,88.97-21.84
	c0.21,0.38,1.02,0.17,0.86-0.24c-4.25-10.54-32.52-1.69-41-0.48c-22.52,3.21-49.34,6.85-68.8,17.39
	c-9.13,4.95-15.55,11.73-22.52,18.5c-9.52,9.25-20.56,16.9-32.36,24.11c-13.96,8.52-30.51,19.42-47.38,18.14
	c8.03-6.94,17.2-13.28,20.88-22.86c1.73-4.5,0.96-8.75,1.39-13.32c0.64-6.8,2.44-10.46,7.65-15.69c6.63-6.67,13.73-13.14,21.42-19
	c18.26-13.92,35.9-17.97,60.24-18.79c17.05-0.58,35.36-1.27,48.61-11.29c15.76-11.93,17-32.45,27.95-47.06
	c24.6-32.83,67.31-48.59,111.95-55.42c1.18-0.18,1.43-1.76,0.17-2.01c-19.77-4-40.14-2.12-59.02,3.64
	c-2.18-3.31-6.9-6.41-10.56-7.93c2.63-0.88,5.23-1.92,7.79-3.17c3.45-1.67,2.14-5.81-1.51-6.32c6.97-4,12.76-7.91,16.07-10.51
	c0.79-0.62,0.47-1.93-0.68-2.1c-12.08-1.87-23.11,2.16-34.15,5.89c-7.03,2.38-14.11,4.84-21.6,6.04c-0.17,0.03-0.34,0.05-0.52,0.07
	c-0.19-0.03-0.37-0.04-0.56-0.07c-0.02,0-0.05-0.01-0.07-0.01c2.8-1.14,5.59-2.3,8.36-3.47c8.61-3.62,17.53-6.79,23.8-13.01
	c0.73-0.72,0.58-2.01-0.72-2.25c-18.13-3.28-42.09,5.56-57.45,13.15c-0.21,0.1-0.37,0.23-0.56,0.34c-0.13-0.03-0.26-0.06-0.38-0.09
	c9.92-5.05,19.47-12.7,23.65-16.18c0.64-0.53,0.61-1.63-0.31-1.98c-8.52-3.25-15.3-0.76-23.44,2.92c-4.34,1.96-8.54,4.14-13.15,5.67
	c3.22-2.37,6.14-5.04,8.82-7.87c6.33-0.72,12.86-1.73,19.11-3.36c3.52,1,7.19,1.59,11.29,1.92c6.75,0.56,14.87,1.53,20.68-1.86
	c1.83-1.07,2.39-3.09,0.71-4.51c-3.06-2.58-7.15-3.62-11.41-4.19c5.25-1.93,10.11-4.37,14.7-7.34c6.25,4.05,20.61,4.47,25.13,1.89
	c1.95-1.11,2.89-3.17,1.59-4.96c-0.91-1.25-2.18-2.24-3.62-3.06c0.83-0.27,1.58-0.5,2.18-0.65c4.6-1.13,18.68-0.43,17.54-6.69
	c-0.3-1.65-1.29-2.89-2.68-3.83c2.09-0.48,4.18-1.06,6.4-1.5c4.67-0.92,10.61-1.31,14.2-4.16c1.1-0.88,1.27-2.32,0.53-3.39
	c-2.16-3.17-6.42-4.63-11.19-4.84c-0.08-0.05-0.11-0.13-0.21-0.17c-14.05-6.04-30.11-3.64-44.35-8.34c0.34-0.31,0.65-0.66,0.88-1.06
	c8.17,1.98,17.57,1.92,25.65,1.7c14.52-0.4,26.63-3.38,38.75-9.88c1.98-1.06,1.24-3.63-1.21-3.68c-9.88-0.18-19.77-0.14-29.66-0.26
	c3.62-0.77,7.06-1.62,10.04-2.29c15.02-3.37,32.9-8.34,43.02-18.48c1.09-1.09,0.5-3.08-1.52-3.01c-14.5,0.5-28.93,5.7-43.1,8.24
	c-4.86,0.87-10.83,1.09-16.75,1.59C750.85,11.29,757.25,5.86,763,0h-21.58c-3.52,2.35-7.03,4.74-10.63,7.19
	c-6.92,4.71-14.16,8.53-20.77,12.92c2.24-6.62,3.35-13.48,3.63-20.12h-4.86c-6.8,9.43-14.52,18.76-21.09,28.37
	c1.88-8.28,3.42-17.22-0.13-24.96c-0.81-1.76-3.44-2.58-5.22-1.13c-9.15,7.44-11.91,19.29-14.85,29.21
	c-1.3,4.39-3.22,9.16-3.92,13.8c-0.1-1.15-0.19-2.27-0.25-3.37c-0.6-10.89-1.04-22.77-5.91-33.02c-0.79-1.66-3.36-1.67-4.15,0
	c-4.86,10.24-5.31,22.15-5.9,33.02c-0.33,6-1.64,12.95,0.57,18.7c-2.64-1.1-6.69-0.37-7.17,2.33c-0.74,4.21-2.13,9.18-4.4,13.02
	c-1,1.69-2.47,3.1-3.28,4.88c-0.06,0.13-0.09,0.23-0.13,0.35c-2,0.55-3.98,1.16-5.95,1.78c-1.08-0.74-2.57-1.12-4.3-0.85
	c-5.54,0.86-10.35,3.56-15.09,5.98c0.18-0.93,0.28-1.86,0.2-2.77c-0.07-0.74-0.66-1.39-1.47-1.64c0.28-0.05,0.58-0.11,0.83-0.16
	c10.45-2.12,19.66-6.52,24.75-14.42c0.94-1.46-0.2-3.58-2.43-3.47c-4.74,0.22-9.36,0.86-13.96,1.65c1.38-0.58,2.71-1.17,3.92-1.71
	c6.31-2.82,12.69-6.66,15.14-12.41c0.69-1.63-1.1-3.02-2.91-3.13c-6.73-0.41-13.37,2.04-19.62,3.77c-0.25,0.07-0.51,0.13-0.76,0.19
	c0.06-0.33,0.13-0.67,0.2-1c1.79-0.79,3.53-1.68,5.18-2.56c6.83-3.65,15.83-7.79,19.75-13.87c0.89-1.38-0.26-2.66-1.99-2.84
	c-5.45-0.58-11.34,0.73-16.92,2.43c1.31-1.64,2.52-3.42,3.77-5.24c4.97-7.23,9.21-14.34,12.21-22.26c0.53-1.41-1.6-2.87-3.16-1.99
	c-5.49,3.1-10.1,6.63-14.37,10.55c0.38-5.72,0.66-11.47,0.95-17.25h-4.46c-2.33,6.64-4.83,13.22-7.33,19.81
	c-0.09-0.35-0.18-0.69-0.26-1.03c-1.49-6.3-2.73-12.75-5.37-18.78h-11.14c-1.95,6.69-1.63,13.8-0.81,20.7
	c0.05,0.44,0.1,0.88,0.15,1.33c-0.22-0.18-0.45-0.35-0.66-0.53c-6.72-5.61-13.26-11.39-20.1-16.89c-0.87-0.7-2.21,0.02-1.97,0.94
	c2.09,8.08,6.08,15.7,11.44,22.67c1.11,1.44,2.3,3.11,3.61,4.77c-0.55-0.38-1.1-0.78-1.7-1.2c-5.45-3.89-11.71-8.61-19.17-8.57
	c2.38-2.27,4.55-4.67,6.79-7.37c0.75-0.9-0.48-1.82-1.56-1.67c-7.55,1.05-13.39,2.47-20.02,5.45c3.03-6.47,5.8-13.02,8.23-19.64
	h-6.04c-6.36,7.48-12.25,15.24-17.87,23.13c-0.13-7.61-1.54-15.2-5.24-21.07c-0.22-0.34-0.74-0.25-0.97,0
	c-1.53,1.63-2.92,3.55-4.16,5.64c-0.04-2.57-0.16-5.14-0.33-7.7h-18.28c0.25,9.06-0.19,18.18-1.03,27.3
	c-0.95,0.83-1.54,2.01-1.43,3.58c0.48,6.8-0.25,13.12-2.25,19.56c-1.34-11.27-3.24-22.83-8.86-32.97c-1.02-1.83-4.34-1.16-4.96,0.53
	c-5.41,14.75-3.36,31.44-2.53,46.64c0.69,12.5-2.11,29.07,8.44,39c0.81,0.76,1.85,1.12,2.93,1.19c-0.85,7.91-1.7,15.83-2.55,23.74
	c-2.28,21.28-3.03,44.15-17.27,62.79c-10.74,14.06-26.21,24.96-35.45,39.91c-7.32,11.85-11.36,24.71-12.82,37.93
	c-0.29,2.63-0.45,5.26-0.56,7.89c-3.04,11.73-4.08,24-4.26,36.42c-0.26,17.93-0.06,35.86,0.22,53.8
	c-7.94-8.77-17.01-16.84-26.67-24.54c-4.88-3.89-9.1-7.61-12.41-11.62c-0.44-5.39-0.59-10.81,0.3-16.32
	c2.36-14.74,10.23-26.85,17.6-40.16c15.77-28.47,15.8-58.42,15.07-89.09c-0.01-0.43-0.74-0.47-0.82-0.04
	c-3.45,18.19-7.21,36.52-13.23,54.27c-5.35,15.77-13.91,29.72-22.24,44.47c-1.17,2.07-2.28,4.31-3.33,6.63
	c0.38-4.67,0.76-9.34,0.94-13.99c0.79-21.08,2.22-46.82-5.73-67.11c-0.17-0.45-1.03-0.62-1.23-0.07
	c-3.78,10.68-3.8,22.15-5.09,33.18c-1.37,11.8-2.72,23.57-3.86,35.39c-1.87,19.29-8.42,41.82,4.79,59.36
	c1.97,2.62,4.17,5.1,6.5,7.51c2.1,4.43,5.05,8.49,9.04,11.96c0.93,0.81,2.72,0.41,2.8-0.77c0.01-0.1,0-0.21,0.01-0.31
	c2.06,1.74,4.14,3.46,6.23,5.18c-9.81-2.84-19.6-5.39-28.59-10.5c-13.76-7.83-26.22-18.64-35.34-30.15
	c-0.39-0.49-1.49-0.32-1.28,0.35c6.54,21.55,24.01,37.34,48.94,46.08c9.38,3.29,20.51,4.22,29.2,8.74
	c8.43,4.39,12.43,12.21,17.03,19.11c0.61,0.92,1.26,1.8,1.89,2.71c0.05,3.2,0.11,6.4,0.15,9.6c0.18,13.92,0.7,27.87,0.5,41.79
	c-0.21,15.15-3.08,25.59-19.4,34.06c-21.54,11.19-35.27,24.87-44.14,44.63c-9.44,21.04-12.59,43.58-21.71,64.71
	c-5.39,12.48-14.22,23.27-22.91,34.14c0.22-5.48,1.3-11.03,3.25-16.8c7.43-21.94,24.94-48.27,11.29-70.84
	c-2.13-3.53-9.33-2.86-9.88,1.13c-0.4-0.77-0.81-1.55-1.24-2.31c-0.87-1.53-4.25-1.17-4.15,0.67c0.48,8.28,2.49,17.89-3.56,25.22
	c-2.11,2.55-5.08,4.62-8.09,6.67c-0.61-5.19-2.3-10.24-5.72-15.03c-1.06-1.48-4.08-0.83-3.59,0.99c2.05,7.73,1.02,15.27-0.82,22.73
	c-5.1,6.37-7.51,14.03-8.14,21.61c-1.88,22.87,5.82,44.41-0.13,67.4c-5.52,21.3-15.44,41.69-19.51,63.27
	c-1.26,6.7-3.54,18.57-1.71,28.09c-2.58,5.67-5.35,11.28-8.37,16.79c-3.08,5.62-6.64,11-10.29,16.33
	c-9.83-40.76-7.65-81.36-10.31-123.3c-2.87-45.27-17.68-96.84-63.33-125.34c-5.43-27.48-25.79-54.2-40.97-77.86
	c-9.69-15.1-19.08-30.32-28.36-45.59c-0.34-3.28-0.68-6.56-1.02-9.83c2.14-3.2,1.34-6.56-0.98-8.88
	c-0.72-6.15-1.52-12.29-2.53-18.43c-0.64-3.88-1.51-7.69-2.47-11.48c12.69-0.4,25.52,0.37,37.93,1.32c1.28,0.1,2.09-1.47,1.09-2.15
	c-9.08-6.12-19.35-9.71-30.14-11.36c17.22,0.65,35.02,2.89,51.39,5.87c2.72,0.5,3.92-2.25,1.82-3.53
	c-21.35-13.01-45.95-18.22-71.39-17.67c-0.2-0.49-0.39-0.97-0.59-1.46c3.63-2.03,7.31-4,11.14-5.81c8.21,1,16.33,2.8,23.81,4.7
	c14.87,3.77,28.8,12.63,44.27,13.87c4.18,0.34,5.85-3.7,4.38-6.25c-6.79-11.78-25.94-18.74-42.48-22.96
	c7.88-0.03,15.76,0.01,23.64,0.13c8.03,2.68,15.9,5.7,23.86,8.51c16.05,5.66,46.9,16.79,61.85,4.18c1-0.84,0.73-2.15-0.44-2.77
	c-9.19-4.88-21.97-5.34-32.31-8.35c-0.33-0.09-0.65-0.2-0.97-0.3c12.86,0.1,25.63-0.05,38.78-0.44c2.03-0.06,2.28-2.25,0.46-2.8
	c-21.12-6.47-40.18-10.56-62.78-12.43c-8.18-0.68-16.36-1.19-24.55-1.57c-5.72-1.95-12.79-4.14-19.9-5.63
	c0.77-0.5,1.55-0.99,2.33-1.49c0.22-0.02,0.41-0.05,0.63-0.06c13.35-0.82,27.23-0.16,40.61,0.14c27.48,0.61,55.71,4.02,83.13,2.07
	c2.44-0.17,4.26-3.31,1.42-4.3c-30.01-10.54-65.91-12.35-98.74-12.94c2.53-1.1,5.1-2.13,7.75-3.03c17.07-5.79,35.75-6.44,54.01-6.69
	c16.6-0.22,33.22,0.23,49.82-0.07c14.29-0.27,31.43,0.15,44.75-4.48c0.78-0.27,0.7-1.3,0-1.59c-12.82-5.36-30.47-5.86-44.75-6.93
	c-18.49-1.4-37.25-2.42-55.81-2.98c-5.98-0.18-11.75-0.09-17.37,0.23c6.09-3.33,12.3-6.63,18.56-9.95c1.9,0.82,3.85,1.57,5.89,2.2
	c3.18,0.97,5.73-2.33,4.22-4.5c-0.52-0.75-1.08-1.48-1.64-2.22c17.17-9.21,34.19-18.81,48.84-30.06c2.11-1.62-0.07-5.02-2.94-4.14
	c-19.07,5.85-37.57,14.07-55.61,22.91c-3.35-3.61-6.73-7.2-9.79-10.96c-4.29-5.26-7.46-11.21-11.14-16.84
	c12.8-0.67,27.21-4.34,35.58-5.94c0.84-0.16,1.68-0.34,2.52-0.5c12.95,0.12,25.92-0.26,38.94-1.35c15.92-1.33,31.77-3.59,47.32-6.71
	c15.7-3.15,33.4-6.15,46.53-14.22c2.18-1.34,1.6-4.32-1.45-4.38c-15.45-0.31-30.96,4-46.18,5.98c-8.31,1.08-16.67,1.92-25.05,2.61
	c2.01-0.95,4.02-1.91,5.96-2.95c4.68-2.5,1.73-8.39-3.79-7.37c-18.65,3.45-36.8,8.36-55.34,12.17c-4.97-0.09-9.93-0.25-14.88-0.48
	c13.53-6.22,26.07-13.29,39.48-20.42c1.74-0.93,0.24-2.94-1.6-2.25c-19.8,7.43-42.23,12.55-62.91,18.17
	c-2.79,0.76-5.74,1.45-8.75,2.12c-3.34-0.31-6.67-0.63-10.01-0.96c12.93-7.36,26.18-14.25,39.48-21.11
	c5.16,1.23,10.4,1.9,15.55,1.63c3.59-0.19,5.84-3.78,3.04-6.02c-1.34-1.07-2.74-2.09-4.19-3.07c1.12-0.58,2.24-1.16,3.36-1.74
	c2.83-1.48,1.06-5.3-2.33-4.53c-2.7,0.61-5.39,1.28-8.07,1.98c-7.83-4.37-16.47-8.1-24.64-12.2c9.59,0.13,17.94,0.33,20.37,0.39
	c23.11,0.63,46.13,2.57,69.18,4.01c6.02,0.38,6.73-6.94,1.38-8.33c-18.23-4.72-36.98-7.36-55.92-8.65
	c28.36-2.64,55.87-3.34,84.72,0.37c10.85,1.4,15.62-11.93,5.11-13.74c16.71-0.22,33.28-0.78,49.96-1.52
	c5.78-0.26,7.9-8.04,1.46-8.82c-24.98-3.03-49.56-4.22-74.85-4.06c-2.14,0.01-4.72-0.08-7.49-0.16c2.67-1.32,5.32-2.67,7.95-4.06
	c37.18-2.42,75.09-9.17,106.52-24.46c1.52-0.74,0.99-3.03-0.96-2.89c-18.65,1.33-37.13,3.48-55.6,5.71c2.67-1.6,5.31-3.23,7.9-4.89
	c18.78-12.03,44.12-28.66,51.94-47.85c0.52-1.27-1.29-2.12-2.56-1.61c-10.03,4-18.39,10.98-26.98,16.8
	c-6.83,4.63-13.69,9.16-20.68,13.56c-0.6-1.77-2.7-3.11-5.03-1.7c-12.99,7.86-25.96,15.35-39.13,22.33
	c9.07-12.49,15.26-26.65,19.02-40.47c1.05-3.86-5.39-6.36-7.96-2.75c-4.64,6.53-8.73,13.32-12.99,19.99
	c-5.35,0.95-10.66,2.07-15.94,3.29c2.52-5.14,5-10.3,7.63-15.38c18.05-8.65,34.89-18.5,50.13-30.41c1.11-0.87-0.3-2.13-1.55-1.65
	c-22.06,8.41-43.68,17.61-65.86,25.8c-4.13,1.53-8.36,2.93-12.62,4.29c0.18-1.36,0.38-2.72,0.53-4.08c0.25-2.23-4.11-3.22-5.25-1.17
	c-1.47,2.64-2.88,5.33-4.26,8.04c-5.6,1.69-11.22,3.36-16.81,5.06c5.98-4.49,11.14-9.05,14.77-12.47c2.16-2.04,4.28-4.17,6.33-6.36
	c10.77-6.73,21.66-13.33,32.65-19.8h-9.59c-3.85,1.76-7.72,3.51-11.53,5.32c1.15-1.74,2.2-3.52,3.19-5.32h-15.3
	c-5.37,6.52-11.28,12.76-18.5,18.45c-4.07,3.2-8.4,6.16-12.9,8.92c4.17-3.44,8.23-6.96,12-10.72c5.2-5.18,9.71-10.62,13.2-16.66
	H253.6c-3.51,4.2-7.43,8.23-12.27,12.07c-15.42,12.21-45.69,25.8-51.99,44.33c-1.44,0.81-2.88,1.62-4.32,2.43
	c1.95-3.61,3.69-7.16,5.28-10.35c7.48-15.01,13.31-32.13,13.05-48.48h-5.67c-6.26,14.54-11.58,28.81-20.47,42.52
	c-6.29,2.53-12.66,4.97-19.13,7.21c10.51-9.08,19.22-19.94,24.14-31.46c0.51-1.2-1.47-1.97-2.48-1.18
	c-14.54,11.27-28.52,21.98-45.25,31.06C154.3,34.99,171.26,19.04,181.97,0h-7.67c-15.53,12.04-30.88,23.97-47.39,34.86
	C132.66,23.01,139.12,11.49,145.8,0h-15.96c-3.26,4.65-6.33,9.36-9.16,14.16c0.16-4.72,0.21-9.44,0.25-14.16h-9.04
	c-3.31,11.32-6.3,22.71-8.64,34.17c-0.13,0.63-0.28,1.29-0.45,1.96c-0.05-0.9-0.13-1.79-0.17-2.69c-0.56-11.11-0.5-22.29-0.8-33.44
	H88.5c-2.2,11.08-3.15,22.38-3.46,33.44c-0.1,3.55-0.46,7.84-0.72,12.42c-0.02-0.05-0.05-0.1-0.08-0.15
	C76.68,30.4,69.06,15.84,65.22,0h-8.33c-1.29,13.11,2.59,26.37,7.32,39.08c0.84,2.25,1.7,4.5,2.57,6.74
	c-2.98,2.12-5.92,4.27-8.84,6.46c-1.49-3.43-2.82-6.91-3.99-10.42c1.35-1.41,2.73-2.8,4.18-4.18c2.81-2.67-1.45-6.16-4.71-3.86
	c-0.52,0.37-1.04,0.76-1.57,1.13c-2.59-9.76-3.8-19.74-3.21-29.68c0.07-1.12-2.13-1.39-2.41-0.27c-3.2,12.38-4.8,24.78-3.87,37.14
	c-3.37,2.69-6.61,5.53-9.76,8.43c-0.19-0.75-0.42-1.5-0.57-2.25c-0.03-0.3-0.07-0.64-0.12-1.06c-0.3-2.77-0.27-5.6-0.26-8.38
	c0.02-10.52,2.16-21.13,1.43-31.63C32.91,4.76,32.46,2.35,31.9,0H0v1062.97c6.13,6.07,12.65,11.71,19.46,17.03h538.67
	c-34.78-5.43-69.37-11.67-103.67-18.83c7.71-2.54,13.89-7.28,16.31-14.51c3.02-9-1.75-21.33-12.66-25.49
	c-62.18-23.77-115.1-62.02-154.24-108.18c11.86-26.36,21.34-53.57,29.16-80.67c3.01-10.43,5.74-20.92,8.21-31.46
	c3.86-1.18,7.86-1.89,12.61-2.56c6.5-0.92,13.4-2.26,18.66-5.73c9.75-6.42,12.25-16.56,5.14-25.05c-5.86-6.99-18.78,0.74-14.64,7.88
	c2.62,4.52-9.29,6.34-17.83,7.33c0.74-3.66,1.49-7.32,2.16-10.99c3.84-20.97,5.36-42.7,14.85-62.64
	c8.34-17.52,23.28-32.24,32.71-49.34c7.76-14.07,9.77-28.56,8.83-43.86c-0.07-1.11-0.16-2.22-0.25-3.34
	c7.28-4.07,13.63-9.2,19.59-14.58c4.7-1.67,10.77-1.25,14.78-3.85c1.2-0.78,1.04-2.22,0.51-3.21c-0.01-0.01-0.02-0.02-0.02-0.03
	c0.73-0.56,0.71-1.63,0.04-2.27c-1.15-1.09-1.93-1.89-3-2.52c1.21-0.26,2.41-0.5,3.6-0.72c6.29-1.16,13.91-0.88,19.44-3.82
	c0.79-0.42,1.28-1.39,0.67-2.09c-8.32-9.61-30.02-5.1-38.63,3.69c-0.16-0.09-0.29-0.2-0.49-0.27c-5-1.59-9.91,3.14-11.84,6.37
	c-1.09,1.83-1.71,3.95-1.51,6.02c-1.68,0.47-3.29,1.14-4.67,1.98c-0.89-9.96-1.07-19.98,2.51-29.41
	c6.02-15.84,23.64-26.82,34.46-40.4c2.28-2.86,4.37-5.76,6.36-8.68c12.89-5.74,25.66-12.72,35.26-21.48
	c13.14-6.27,24.15-13.99,26.53-27.71c2.76-2.23,3.5-6.15,6.47-7.77c3.99-2.18,14.18,0.36,18.67,0.31c0.17,0,0.34-0.01,0.52-0.02
	c2.7,0.42,5.48,0.75,8.48,0.97c8.99,0.66,18.71,0.1,27.73,1.12c13.54,3.3,26.92,5.06,41.7,4.74c3.38-0.07,6.67-0.14,9.89-0.17
	c0.71,0.3,1.42,0.6,2.18,0.9c4.57,1.79,10.12,3.39,14.13,6.19c0,0.01-0.01,0.01-0.02,0.01c-2.81,3.47-2.08,8.34,0.02,11.89
	c-4.28,4.02-7.12,8.87-9.11,14.14c-0.63,1.66,2.35,3.29,3.77,1.8c2.82-2.97,6.71-5.93,10.59-8.33c0.38,1.77,1.19,3.41,2.48,4.58
	c-2.12,2.44-3.85,5.19-5.5,7.72c-1.54,2.36-2.92,4.74-4.16,7.17c-3.36,2.83-6.25,5.85-6.76,9.99c-0.16,1.33,1.49,2.41,2.97,2.43
	c2.94,0.06,5.54-0.69,7.97-1.79c-0.22,1.74,0.56,3.32,3.35,4.32c1.41,0.51,2.64-1.06,1.24-1.74c-0.13-0.06,9.02-9.39,10.35-10.86
	c0.92-1.02,1.83-2.03,2.71-3.05c1.03-0.72,2.07-1.43,3.07-2.17c0.41,0.51,0.78,1.04,1.22,1.54c-2.67,2.37-5.17,4.91-7.2,7.63
	c-3,4.01-4.23,8.21-6.06,12.58c-0.98,2.34,3.05,4.2,5.05,2.41c0.96-0.86,2-1.68,3.06-2.48c-1.49,3.68-2.5,7.44-1.97,11.4
	c0.22,1.63,2.45,3.3,4.47,2.1c5.74-3.41,8.97-8.15,12.18-13.26c0.56-0.9,1.14-1.81,1.71-2.73c-2.39,5.23-3.56,10.91-2.32,15.76
	c0.24,0.94,1.87,1.54,2.86,0.95c2.77-1.64,5.37-3.9,7.69-6.49c2.92,5.78,7.96,10.82,14.03,13.1c0.71,0.27,1.9-0.03,1.77-0.83
	c-0.75-4.87-1.9-9.43-3.1-14.24c-0.2-0.78-0.32-1.58-0.42-2.37c8.17,5.23,17.29,10.21,27.22,10.29c1.85,0.02,2.73-1.59,1.99-2.84
	c-2.24-3.75-5.84-7-10-9.95c6.76,0,13.3-0.2,20.08-1.63c1.19-0.25,1.21-1.48,0.32-1.99c-8.81-5.14-18.47-6.26-29.12-6.56
	c-2.43-0.07-4.48-0.42-6.58-0.78c2.1-0.07,4.17-0.16,6.15-0.18c8.84-0.12,18.42-0.02,26.34-3.58c1.2-0.54,1.2-2.07,0-2.61
	c-7.91-3.56-17.51-3.45-26.34-3.58c-2.93-0.04-6.03-0.19-9.15-0.25c7.37-1.14,14.47-2.95,20.78-6.19c1.62-0.83,1.16-2.63-0.5-3.15
	c-5.43-1.68-11.08-2.43-16.82-2.65c1.13-0.36,2.28-0.74,3.47-1.15c0.81-0.28,1.12-1.46,0-1.62c-10.07-1.45-19.78-3.57-30.02-4.66
	c-2.64-0.28-7.92-0.95-11.6,0.01c-0.73-0.99-1.45-1.99-2.12-3.02c0.13,0.06,0.26,0.13,0.4,0.17c1.83,0.5,3.81,0.89,5.75,0.82
	c1.91-0.07,3.83-0.28,5.73-0.14c1.87,0.14,2.25-1.99,0.9-2.71c-1.95-1.04-3.86-2.09-6.14-2.62c-0.62-0.14-1.25-0.2-1.88-0.21
	c0.2-4.07-3.54-5.71-7.86-5.83c-0.45-0.38-0.9-0.74-1.3-1.06c-0.73-0.58-1.46-1.21-2.44-1.61c-1.03-1.79-2.2-3.51-3.66-5.06
	c-1.11-1.18-2.36-2.27-3.71-3.29c9.44,0.84,18.74,2.61,28.58,6.14c16.16,5.8,31.25,10.18,49.14,7.99
	c14.8-1.81,27.94-7.16,39.56-14.45c2.9,0.17,5.81,0.13,8.72-0.35c3.05-0.51,3.25-3.46,1.51-5.06c2.07-0.58,4.13-1.2,6.19-1.83
	c1.88-0.4,3.83-0.84,5.71-1.09c1-0.13,1.77-0.6,2.35-1.22c0.75-0.19,1.5-0.39,2.26-0.56c8.36-1.81,16.92-2.87,25.53-3.33
	c0.48,3.31,1.5,6.52,3.42,9.53c2.77,4.35,8.78,6.59,11.07,10.83c0.09,0.17,0.44,0.05,0.37-0.13c-1.28-3.4,1.78-9.97,2-13.69
	c0.13-2.23-0.07-4.46-0.41-6.68c0.84,0.04,1.68,0.08,2.52,0.12c0.29,0.15,0.6,0.26,0.91,0.36c-0.06,5.51,2.48,11.29,4.13,16.57
	c1.72,5.51,3.74,10.89,6.45,16.13c0.96,1.86,4.24,1.07,4.87-0.52c2.65-6.69,3.68-15.89,1.92-24.06c2.84,3.24,5.98,6.54,9.84,8.89
	c1.68,6.28,3.83,12.15,8.28,17.67c2,2.48,6.96,2.24,7.96-0.85c2.44-7.56,1.58-14.67-0.08-22.3c-0.32-1.45-0.56-2.91-0.82-4.33
	c3.74,4.3,7.68,8.45,11.13,12.96c3.3,4.32,11.58,12.79,10.23,18.14c-0.31,1.21,1.5,2.26,2.65,1.27c8.43-7.29,6.93-14.38,1.95-23.02
	c-0.58-1.01-1.3-2.24-2.12-3.58c7.51,4.22,15.08,9.41,24.27,9.66c1.13,0.03,1.78-0.88,1.58-1.7c-1.1-4.58-7.4-11.03-15.56-16.61
	c7.85-1.09,15.37-3.23,21.92-6.7c1.83-0.97,0.99-3.06-1.06-3.21c-13.18-0.98-26.31-0.63-39.46-1.39c6.51-2.47,12.85-5.28,18.02-9.24
	c1.62-1.24,0.23-3.14-1.67-3.3c-10.38-0.85-21.01,1.9-30.86,4.67c2.28-1.34,4.46-2.38,6.5-2.9c4.8-1.23,4.26-8.15-1.25-7.59
	c-1.25,0.13-2.46,0.29-3.63,0.48c-0.45-0.6-0.94-1.18-1.42-1.77c0.24-1.43-0.89-3.05-2.91-3.31c-1.31-1.4-2.67-2.78-4.04-4.14
	c2.51,1.18,5.06,2.2,7.29,3.05c9.97,3.82,18.94,5.02,29.73,3.49c1.99-0.28,2.29-2.8,0.56-3.53c-6.84-2.88-13.92-5.45-20.8-8.28
	c1.13,0.03,2.25,0.01,3.35-0.13c5.46,0.68,11.02,0.97,16.18,1.2c5.77,0.26,8.4-3.65,7.91-7.35c17.58-2.51,31.16-8.08,45.5-16.82
	C961.23,392.01,959.89,387.92,956.31,388.96z M624.95,312.53c0.09,0.76,0.45,1.45,1.03,2.07c-0.4,0.07-0.8,0.16-1.2,0.23
	c-0.55-0.32-1.13-0.56-1.7-0.83C623.7,313.51,624.32,313.01,624.95,312.53z M699.78,79.56c-0.94,0.45-1.91,0.87-2.87,1.29
	c0.37-0.89,0.65-1.79,0.71-2.73c0.02-0.32-0.04-0.63-0.13-0.92c1.41-0.03,2.82-0.04,4.26,0C701.13,78,700.52,78.81,699.78,79.56z
	 M681.64,58.02c7.12,3.86,15.94,5.81,24.27,7.34c0.55,0.1,1.11,0.2,1.66,0.3c-0.95,2.74-2.04,5.43-3.47,7.98
	c-2.76-1.96-5.03-4.42-8-6.18c-4.03-2.39-8.72-4.19-13.18-5.97c-1.18-0.47-2.4-1-3.63-1.53C680.08,59.32,680.85,58.66,681.64,58.02z
	 M662.02,74.86c4.6,0.11,9.23,0.1,14.04,0.08c0.9,0,1.69-0.14,2.42-0.34c2.23,0.66,4.49,1.24,6.76,1.74
	c-3.25,1.55-6.25,3.74-8.7,5.53c-1.55,1.13-3.62,2.96-5.04,4.98c-5.13,0.23-10.27,0.47-15.4,0.7c2-2.04,1.64-5.63-0.63-7.52
	C657.68,78.33,659.88,76.64,662.02,74.86z M187.84,231.58c3.61,4.33,7.68,8.47,12.23,12.15c-4.01,2.04-8,4.09-11.97,6.13
	c-1.45-3.01-2.77-6.06-3.71-9.22c-1.64-5.47-1.56-11.06-1.55-16.64C184.7,227.07,186.35,229.79,187.84,231.58z M239.9,80.63
	c-0.49,0.48-1,0.94-1.51,1.41c-6.58-1.39-13.25-2.52-19.93-3.45c0.03-0.09,0.06-0.19,0.09-0.28c8.77-0.81,17.73-1.93,26.68-3.43
	C243.55,76.86,241.79,78.78,239.9,80.63z M309.06,55.96c-4.05,5.5-8.53,10.78-13.99,15.57c-2.86,2.51-5.93,4.86-9.17,7.04
	c-1.07,0.08-2.16,0.13-3.23,0.2c3.99-5.16,7.39-10.58,10.49-16.13C298.68,60.63,303.99,58.4,309.06,55.96z M275.22,47.38
	c6.26-2.55,12.36-5.22,18.21-7.82c-3.28,4.17-6.44,8.4-9.64,12.62c-3.55,0.86-7.1,1.69-10.67,2.5
	C273.9,52.26,274.6,49.83,275.22,47.38z M266.55,70.56c1-0.24,2.01-0.47,3-0.72c-2.01,2.27-4.08,4.5-6.28,6.64
	C264.46,74.54,265.52,72.56,266.55,70.56z M204.62,64c0.02-0.09,0.05-0.18,0.07-0.28c4.58-2.88,9.15-5.78,13.71-8.69
	c0.39-0.04,0.79-0.13,1.19-0.19c0.7,3.45,5.02,6.67,10.11,5.97c9.84-1.35,19.86-4.08,29.71-7.46c-0.82,1.53-1.67,3.05-2.54,4.57
	c-17.36,3.03-34.77,4.96-52.39,6.56C204.52,64.32,204.59,64.17,204.62,64z M93.48,251.23c0.14,0.9,0.22,1.81,0.39,2.71
	c-2.96,2.08-5.77,4.33-8.52,6.66c-6.26,0.98-12.55,2.51-18.76,4.37C75.4,260.19,84.35,255.59,93.48,251.23z M81.12,245.49
	c3.72-2.05,7.45-4.1,11.13-6.21c0.05,0.86,0.14,1.73,0.2,2.59C88.65,243.01,84.87,244.21,81.12,245.49z M91.34,174.01
	c15.4-13.89,32.45-26.74,50.31-38.87c1.18-0.03,2.35-0.05,3.53-0.1c0.55,1.2,1.18,2.36,1.85,3.51
	c-10.05,9.08-19.67,18.43-29.05,28.1c-2.83,2.92-5.71,5.83-8.7,8.66C103.34,174.79,97.35,174.36,91.34,174.01z M110.25,228.35
	c0.62-0.4,1.25-0.8,1.87-1.2c0.44,3.06,1.04,6.1,1.83,9.11c-1.26,0.29-2.53,0.58-3.78,0.88
	C110.26,234.21,110.28,231.28,110.25,228.35z M109.95,216.64c-0.2-5.47-0.42-10.86-0.45-16.05c-0.01-0.96-0.1-2.19-0.28-3.56
	c0.35-0.23,0.7-0.45,1.05-0.69c0.06,3.69,0.41,7.43,0.48,11c0.06,2.95,0.15,5.92,0.32,8.88
	C110.69,216.36,110.32,216.5,109.95,216.64z M109.09,249.94c0.26-0.39,0.55-0.76,0.81-1.15c0.53-0.79,0.26-1.67-0.38-2.24
	c0.1-0.93,0.17-1.86,0.25-2.79c1.89-0.84,3.81-1.63,5.71-2.45c0.51,1.47,1.07,2.94,1.7,4.39c0.47,1.08,1.53,1.92,2.79,2.43
	c-4.8,4.8-9.36,9.8-13.81,14.88C107.53,258.77,108.45,254.39,109.09,249.94z M125.74,267.7c-5.34,4.96-10.77,9.83-16.25,14.69
	c7.2-9.23,14.35-18.6,20.59-28.24c1.2,1.84,2.5,3.66,3.93,5.46C131.29,262.38,128.54,265.1,125.74,267.7z M152.54,146.23
	c3.02,3.43,6.22,6.13,9.71,8.35c-8.67,3.99-16.97,8.59-24.75,13.26C142.89,160.82,147.87,153.59,152.54,146.23z M139.97,253.45
	c-0.58-3.97-1.08-7.96-1.43-11.96c1.09,3.17,2.49,6.21,4.19,9.07C141.8,251.53,140.88,252.49,139.97,253.45z M145.53,270.4
	c2.46-2.62,4.98-5.32,7.5-8.07c1.24,0.96,2.52,1.87,3.91,2.71C153.38,266.64,149.47,268.44,145.53,270.4z M155.87,237.07
	c-0.25-0.94-0.49-1.87-0.69-2.82c-1.95-9.31-1.62-18.14,0.14-27.08c1.32-0.1,2.65-0.23,3.99-0.4c2.33,3.84,4.12,7.72,4.55,13.39
	c0.23,3.05,0.31,6.05,0.47,9.03C161.44,231.72,158.63,234.37,155.87,237.07z M169.38,259.4c-1.54,0.77-3.64,1.72-6.1,2.82
	c-0.47-3.04-1.28-6.02-2.2-8.97c2.17-2.56,4.28-5.15,6.29-7.79c1.56,4.16,3.65,8.13,6.36,11.75
	C172.28,257.94,170.83,258.67,169.38,259.4z M203.8,156.66c-11.93,4.2-23.5,9.11-34.48,14.56c-4.37,2.17-11.06,5.08-17.81,8.52
	c-1.93-0.22-3.86-0.43-5.79-0.65c5.44-3.39,10.79-6.38,13.86-8.45c5.13-3.46,10.46-6.82,15.71-10.26c2.22,0.7,4.52,1.34,6.99,1.93
	c2.39,0.57,4.76-2.25,2.59-3.65c-1.15-0.74-2.28-1.57-3.38-2.43c2.9-1.99,5.73-4.03,8.45-6.16
	C194.22,152.3,198.89,154.6,203.8,156.66z M189.69,73.08c0.01,0.94,0.23,1.86,0.64,2.71c-1.75-0.05-3.63,0.03-5.55,0.26
	C186.41,75.05,188.07,74.08,189.69,73.08z M174.29,149.58c-3.01-3.25-5.67-6.73-7.84-10.06c-0.3-0.45-0.53-0.92-0.8-1.38
	c0.84-0.15,2.17-0.28,3.97-0.37c4.45,3.1,9.08,6.03,13.86,8.77C180.4,147.45,177.33,148.46,174.29,149.58z M172.17,99.17
	c2.98,0.57,5.98,1.12,9.02,1.63c-5.12,2.37-10.21,4.76-15.26,7.2c-2.37,0.92-4.74,1.84-7.14,2.78c-0.91-0.14-1.84-0.2-2.78-0.21
	C160.81,106.02,166.42,102.58,172.17,99.17z M158.12,96.27c0.43,0.1,0.89,0.18,1.33,0.28c-4.4,2-8.52,4.44-12.17,6.98
	c-4.74,3.31-10.95,8.3-14.53,13.76c-8.1,0.06-15.95,0.14-23.5,0.79c5.73-2.89,11.38-5.89,17.01-8.85
	c9.4-4.94,18.66-10.07,27.86-15.27C155.15,95.08,156.61,95.93,158.12,96.27z M110.44,76.74c2.19-0.58,4.39-1.34,6.58-2.17
	c6.1-0.73,12.09-1.79,17.92-3.18c-0.85,0.53-1.52,0.95-1.91,1.19c-0.61,0.37-1.18,0.76-1.78,1.14c-4.79,1.27-9.59,2.59-14.42,4.04
	c-2.27,0.68-4.77,1.32-7.39,1.98C109.78,78.73,110.11,77.74,110.44,76.74z M102.5,99.64c1.79-0.9,3.57-1.8,5.35-2.7
	c6.3-2.35,12.37-5.03,17.64-6.86c3.01-1.04,5.91-2.14,8.84-3.23c-5.8,3.09-11.63,6.15-17.51,9.15c-5.27,2.69-10.64,5.29-15.99,7.89
	C101.41,102.48,101.96,101.06,102.5,99.64z M115.05,135.57c-13.32,8.23-26.02,17.13-37.92,26.94c5.58-8.91,11.37-17.7,17.61-26.22
	C101.49,135.89,108.27,135.69,115.05,135.57z M92.01,136.45c-4.93,6.88-9.03,14.25-13.48,21.2c-1.68,2.62-3.32,5.26-4.99,7.89
	c-2.94,2.5-5.84,5.04-8.67,7.67c-1.03,0-2.07-0.03-3.1-0.02c1.98-3.45,2.64-7.2,2.4-11.12c0.48-1.52,0.97-3.03,1.45-4.55
	c6.31-6.55,12.02-13.39,16.95-20.28C85.72,136.91,88.87,136.66,92.01,136.45z M69.07,51.81c2.03,5.34,3.99,10.69,5.58,16.12
	c1.64,5.58,1.49,12.06,3.86,17.41c-5.72-6.86-10.8-14.02-14.98-21.61c-0.69-1.25-1.31-2.54-1.97-3.81
	C64.06,57.21,66.57,54.51,69.07,51.81z M39.5,59.99c1.43-2.14,2.93-4.26,4.49-6.35c0.57,2.64,1.23,5.27,2.08,7.9
	c-1.66,1.34-3.3,2.7-4.94,4.07C40.7,63.68,40.14,61.81,39.5,59.99z M43.59,79.68c2.2-2.43,4.4-4.86,6.6-7.28
	c0.55,1.31,1.14,2.65,1.78,4.05c-2.05,3.1-4.15,6.19-6.27,9.26C45.03,83.69,44.31,81.69,43.59,79.68z M51.46,104.29
	c2.74-5.19,5.01-10.48,6.92-15.85c5.46,8.68,12.56,16.32,21.21,17.72c-2.11,4.34-4.55,8.55-7.13,12.69
	c-5.58,3.36-10.96,6.95-15.93,10.98c-0.08,0.06-0.11,0.13-0.18,0.2c-1.31-8.6-3-17.03-5.09-25.35
	C51.31,104.56,51.39,104.42,51.46,104.29z M60.05,135.9c-0.84,1-1.69,2-2.54,3c-0.12-1.12-0.21-2.25-0.36-3.37
	c-0.02-0.14-0.04-0.27-0.06-0.41C57.91,135.63,58.92,135.95,60.05,135.9z M55.06,213.44c1.2-1.67,2.42-3.33,3.72-4.99
	c4.67-5.98,9.72-11.75,15.03-17.37c5.19,0.1,10.38,0.27,15.56,0.54c-1.49,1.59-2.74,3.37-3.56,5.6c-0.68,1.86,0.82,3.94,3.08,4.44
	c0.84,0.19,1.66,0.29,2.48,0.38c0.12,7.37,0.19,14.75,0.38,22.12c-13.02,5.82-25.69,12.27-38.19,18.63
	C53.71,233,54.31,223.21,55.06,213.44z M57.36,285.5c-0.2-0.74-0.38-1.43-0.55-2.09c3.05-1.13,6.11-2.25,9.19-3.36
	c-1.25,1.45-2.42,2.91-3.62,4.37C60.7,284.73,59.03,285.1,57.36,285.5z M67.85,306.19c-0.77,0.19-1.56,0.43-2.33,0.64
	c0.94-1.59,1.85-3.2,2.88-4.76c7.7-11.78,17.3-22.55,26.43-33.54c0.98-0.47,1.96-0.94,2.91-1.44c0.27,0.7,0.53,1.4,0.86,2.09
	c0.26,0.56,0.7,0.96,1.21,1.22c-5.53,6.53-10.95,13.09-16.43,19.44c-4.82,5.59-9.57,11.22-14.34,16.83
	C68.87,306.3,68.45,306.04,67.85,306.19z M77.77,338.07c0.94-0.63,1.87-1.26,2.81-1.89c1,0.02,2.01,0.08,3.01,0.14
	c-1.87,0.79-3.68,1.65-5.52,2.48C77.97,338.56,77.87,338.31,77.77,338.07z M612.89,105.61c0.06-0.03,0.12-0.06,0.18-0.08
	c7.5,0.42,15.56-0.05,23.4-0.76c-1.34,0.38-2.68,0.73-4.04,1.04c-5.08,1.14-10.22,1.39-15.26,2.04c-1.88-0.56-3.76-1.11-5.64-1.66
	C611.99,105.99,612.44,105.81,612.89,105.61z M560.59,34.74c0.9,0.81,1.78,1.66,2.6,2.61c1.92,2.23,3.85,4.55,6.09,6.61
	c-1.31-0.48-2.61-0.95-3.92-1.4c0.11-0.14,0.25-0.28,0.35-0.42c0.74-1.01-0.24-2.14-1.55-2.21c-2.25-0.13-4.51-0.04-6.76,0.18
	c-1.62-0.42-3.26-0.79-4.96-1.08C555.85,37.48,558.68,35.99,560.59,34.74z M568.74,59.46c-3.91-0.08-7.82,0.05-11.6,0.47
	c2.39-0.87,4.82-1.75,7.3-2.63C565.82,58.08,567.25,58.81,568.74,59.46z M557.08,52.06c-1.52,0.09-3.05,0.18-4.58,0.25
	c1.04-0.54,2.07-1.08,3.04-1.66C556.02,51.14,556.56,51.59,557.08,52.06z M549.67,40.25c0,0.11-0.04,0.22-0.02,0.34
	c0.06,0.24,0.16,0.46,0.23,0.7c-2.13,0.43-4.24,0.9-6.34,1.38C545.66,41.88,547.74,41.08,549.67,40.25z M510.74,101.63
	c1.69-1.21,2.95-2.75,4.39-4.17c0.21-0.21,0.46-0.43,0.74-0.66c8.28,1,16.77,1.39,24.28,2.22c6.84,0.76,9.56-6.51,2.89-8.58
	c-4.76-1.48-9.43-2.97-14.12-4.4c6.19,0.12,12.27-0.37,17.83-1.95c1.41-0.4,2.26-2.02,0.95-2.95c-7.89-5.55-18.38-8.47-28.9-10.36
	c0.36-0.55,0.71-1.1,1.06-1.66c4.94-0.26,10.17-1.67,14.83-2.56c3.23-0.62,6.27-1.38,9.22-2.23c-0.41,1.42,0.38,3.13,1.88,3.93
	c7.01,3.76,16.77,5.37,26.08,6.04c-7.07,1.9-14.21,3.65-21.31,5.41c-1.94,0.48-2.71,3.04-0.61,3.84c9.08,3.45,16.98,4.4,26.94,3.02
	c2.48-0.34,6.08-0.94,9.62-1.93c-0.59,3.58-0.47,5.91,1.61,8.78c-1.32,0.95-2.66,1.91-3.87,2.95c0.1-1.65-0.28-3.23-1.45-4.58
	c-0.67-0.78-1.88-1.36-3.08-1.03c-4.73,1.31-8.21,5.8-11.68,8.61c-2.4,1.94-4.88,3.75-6.99,5.81c-14.69,3.2-27.95,8.73-38.98,20.39
	c-6.22,6.57-11.52,13.79-16.62,21.09C507.47,131.69,509.18,116.67,510.74,101.63z M452.56,338.14
	c-8.71-31.48-18.01-67.33-0.52-97.98c9.18-16.1,26.45-27.58,37.11-42.89c1.44-2.06,2.71-4.18,3.89-6.32
	c3.85-3.8,7.1-8.11,10.28-12.28c5.04-0.82,9.6-2.61,14.28-4.61c5.72-2.44,12.73-3.63,17.6-7.13c1.46-1.05,1.16-2.87-0.09-3.9
	c0.1-0.32,0.18-0.64,0.18-0.98c0-0.65-0.25-1.23-0.48-1.83c3.87-1.28,7.31-3,9.08-6.51c0.28-0.56-0.43-1.28-1.14-1.23
	c-0.88,0.06-1.76,0.15-2.64,0.24c3.9-2.58,7.46-5.47,11.56-8.08c0.09-0.06-0.03-0.18-0.12-0.13c-7.33,3.27-15.8,4.69-23.43,7.5
	c-1.64,0.6-3.72,1.15-5.81,1.78c4.03-5.27,8.11-10.5,12.44-15.59c10.35-12.13,22.41-17.61,39.72-20.97
	c7.11-1.38,13.61-2.91,19.95-4.8c5.53,3.56,11.5,6.46,17.74,8.99c-2.55,3.64-4.59,7.8-7.18,11.03c-4.25,5.29-8.03,11.01-12.42,16.17
	c-0.9,1.06,0.58,2.39,1.97,2.1c9.11-1.97,16.17-4.59,22.61-10.58c2.83-2.64,6.23-6.1,8.72-9.81c-1.55,4.17-3,8.34-5.22,12.4
	c-2.76,5.03-6.18,9.9-6.71,15.49c-0.1,1.05,1.26,2.21,2.56,2.1c8.55-0.71,15.75-6,20.84-12.7c-0.03,2.28-0.01,4.55,0.03,6.84
	c0.07,3.8,1.75,7.91,1.52,11.58c-0.06,1.01,1.5,1.78,2.54,1.2c7.52-4.21,10.19-7.62,11.68-15.23c0.68-3.43,0.73-6.92,1.38-10.35
	c0.52-2.76,1.79-5.25,2.88-7.8c0.87,0.18,1.76,0.35,2.64,0.53c-0.38,2.85-0.61,5.73-1.12,8.59c-1.11,6.21-1.78,12.06-1.63,18.32
	c0.04,1.9,2.72,2.66,4.37,1.48c6.11-4.33,11.53-11.41,14.36-18.9c2.17,4.38,4.1,8.79,5.28,13.64c2.08,8.51,17.67,4.86,15.8-3.57
	c-0.96-4.35-2.28-8.92-4.16-13.32c0.3-0.04,0.62-0.11,0.92-0.16c0.35,0.2,0.71,0.41,1.07,0.59c7.66,3.78,16.82,5.04,25.16,7.62
	c-12.49,5.33-24.01,12.28-33.8,20.24c-13.92,11.32-25.15,24.81-32.24,39.83c-4.68,9.93-6.49,22.06-19.32,27.3
	c-8.66,3.54-19.23,3.4-28.65,3.66c-19.98,0.56-38.31,1.66-55.97,10.2c-9.51,4.6-17.99,10.43-25.86,16.81
	c-0.68-6.15-3.21-11.63-4.41-18.83c-2.32-13.95,22.54-31.15,32.53-41.49c0.57-0.59,1.14-1.19,1.72-1.79
	c1.54-0.83,2.61-2.07,3.35-3.49c2.45-2.56,4.91-5.11,7.35-7.67c4.25,0.39,7.17-0.73,11.13-2.35c3.63-1.49,7.66-2.22,11.35-3.63
	c5.06-1.93,2.74-7.38-1.39-8.73c-0.73-0.24-1.53-0.41-2.37-0.54c0.26-0.25,0.5-0.51,0.7-0.8c2.85-0.92,5.49-2.67,7.54-4.37
	c2.54-2.1,4.85-4.63,6.27-7.37c1.44-2.78,0.91-5.2,1.02-8.09c0.06-1.51-2.25-2.14-3.5-1.19c-2.04,1.55-4.91,2.39-7.08,3.9
	c-1.61,1.12-3.23,2.19-4.9,3.23c-0.6-2.05-1.46-4-2.87-5.6c-1.58-1.79-4.34-2.25-6.43-0.68c-5.86,4.41-5.25,12.59-3.93,18.43
	c0.29,1.27,1.21,2.31,2.41,3.09c-1.89,0.45-3.72,1.06-5.37,1.84c-0.13-5.97-3.67-11.44-9.32-9.27c-3.33,1.28-4.04,5.15-4.86,7.76
	c-0.7,2.21-1.72,4.62-1.8,6.97c-1.03-0.04-2.1,0.21-3.17,0.9c-2.47,1.58-4.3,5.48-4.75,9.32c-0.5-0.96-1.17-1.85-2.07-2.61
	c-1.79-1.5-5.4-1.7-7.15,0c-1.93,1.87-2.53,3.98-3.52,6.23c-1.09,2.47-2.6,4.77-3.41,7.31c-0.87,2.71,0.57,4.84,2.84,5.95
	c-10.37,7.67-21.54,16.23-24.75,27.13c-1.68,5.69-0.59,10.13,1.5,15.61c3.17,8.28,3.73,14.43,0.49,23.01
	c-0.58,1.54-1.15,3.05-1.7,4.52c-0.01,0.01-0.02,0.02-0.03,0.03c-7.45,7.27-10.61,13.25-11.48,22.15
	c-3.86,6.71-6.93,14.02-11.75,19.73c-7.03,8.33-20.33,9.43-28.82,16.59C453.25,340.69,452.91,339.41,452.56,338.14z M515.04,434.71
	c-0.76,0.38-1.54,0.8-2.33,1.25c-5.34,0.09-10.91,0.36-16.1,1.44c0.05-0.32,0.14-0.63,0.19-0.95c0.74-0.19,1.46-0.42,2.11-0.72
	c2.26-1.03,3.52-3.61,2.93-5.75c0.83,0.28,1.68,0.53,2.53,0.76c6.74,1.81,16,2.39,21.03-2.14c0.88,0.08,1.76,0.19,2.62,0.31
	C523.62,430.73,519.25,432.61,515.04,434.71z M704.72,441.92c-1.01-0.09-2.01-0.18-3.03-0.24c-0.27-0.14-0.53-0.29-0.8-0.43
	c0.58-0.18,1.16-0.33,1.74-0.5c0.94,0.3,1.83,0.66,2.72,1.02C705.13,441.82,704.92,441.87,704.72,441.92z M725.2,398.79
	c0.33-0.97,0.16-1.86-0.3-2.64c1.45,0.4,2.9,0.72,4.33,0.92c0.62,0.08,1.28-0.13,1.45-0.67c0.09-0.29,0.13-0.57,0.19-0.86
	c1.16,0.37,2.34,0.62,3.51,0.81c-3.57,3.03-7.35,5.82-11.68,8.2C723.69,402.67,724.53,400.75,725.2,398.79z M722.92,439.96
	c0.21,0.06,0.42,0.09,0.62,0.13c-3.91,0.52-7.81,0.77-11.85,0.93c-0.18,0.01-0.38,0.02-0.58,0.03c0.32-0.62,0.31-1.34-0.24-2.02
	c-1.22-1.51-2.42-2.9-3.65-4.2C712.5,436.94,718.11,438.61,722.92,439.96z M697.07,362.71c0.34-0.22,0.71-0.41,1.02-0.66
	c1.31-1.04,1.29-2.4,0.54-3.53c0.1-0.29,0.21-0.58,0.32-0.86c1.83-0.41,3.65-0.84,5.38-1.26c0.43-0.1,0.87-0.22,1.3-0.33
	c-3.6,3.62-6.99,7.41-10.39,11.14C695.88,365.72,696.49,364.22,697.07,362.71z M668.57,366.3c0.32,0.06,0.66,0.07,0.98,0.12
	c-1.15,1.08-2.27,2.19-3.35,3.34c-0.28,0.3-0.56,0.6-0.84,0.91c-0.1-0.45-0.33-0.88-0.67-1.26
	C665.93,368.34,667.24,367.32,668.57,366.3z M635.11,454.4c-20.54,0.52-39.51,3.61-59.7-1.44c-7.27-1.82-21.02-6.84-35.36-10.43
	c0.66-0.44,1.32-0.89,1.97-1.34c5.46-0.69,10.91-1.59,16.4-2.52c8.31-1.42,17.23-2.94,25.32-5.7c1.28,0.06,2.53,0.13,3.73,0.25
	c11.94,1.19,27.58,0.32,40.28,2.44c0.14,0.08,0.27,0.17,0.41,0.25c0.99,6.26,5.37,12.24,11.32,16.85c1.05,0.82,2.53,0.53,3.24-0.27
	c0.03,0.04,0.05,0.08,0.08,0.11c0.51,0.71,1.07,1.4,1.63,2.08C641.43,454.44,638.33,454.32,635.11,454.4z M663.88,421.99
	c-1.08,0.68-2.05,1.44-2.86,2.28c-1.5,0.09-2.85,0.68-3.69,2.23c-0.32,0.59-0.45,1.16-0.5,1.72c-2.89,1.77-5.54,3.84-7.92,6.21
	c-1.06-0.54-2.12-1.11-3.15-1.74c-0.59-0.36-1.26-0.19-1.73,0.18c-2.04-0.96-4.1-1.86-6.16-2.72c-0.78-2.47-1.71-4.93-2.92-7.35
	c-0.53-1.06-2.17-1.35-3-0.32c-1.17,1.46-2.03,2.95-2.68,4.46c-3.06-1.05-6.14-2.03-9.28-2.9c-0.41-0.27-0.8-0.56-1.24-0.81
	c1.74-1.57,3.07-3.34,4.07-5.26c2.16-2.25,4.35-4.8,7.03-7.61c0.3-0.31,0.03-0.78-0.49-0.69c-1.55,0.28-2.98,0.68-4.39,1.12
	c0.2-1.57,0.26-3.22,0.21-4.92c-0.2-6.17,0.96-9.86,7.63-13.84c3.59-2.14,13.63-3.71,18.19-4.89c4.01-1.03,8.04-2.01,12.07-2.99
	c1.95,1.34,4.09,2.52,6.58,3.38c0.51,0.18,0.98,0.31,1.46,0.45c4.19,3.87,9.88,6.92,14.71,8.51c5.68,1.87,9.45-5.72,4.14-8.06
	c-0.5-0.22-0.95-0.46-1.41-0.7c0.15-0.54-0.05-1.17-0.64-1.46c-1.98-0.97-3.65-2.33-5.52-3.45c1.5-0.46,2.84-1.13,4.03-2.01
	c1.21,0.16,2.37,0.4,3.52,0.63c0.67,0.83,1.56,1.5,2.64,1.93c2.12,2.17,4.38,4.27,6.49,6.4c3.51,3.55,7.99,9.46,13.9,10.25
	c-3.08,3.72-7.11,6.77-12.08,9.02c-1.45,0.65-2.77,1.23-4.03,1.79c2.3-2.39,2.8-5.66-0.03-7.98c-2.49-2.04-7.34-2.33-9.78,0
	c-2.94,2.8-5.88,5.61-8.82,8.42c-2.71,2.59-6.32,5.32-7.59,8.63c-0.14,0.02-0.29,0.03-0.43,0.05c-0.2-0.05-0.41-0.06-0.63-0.01
	c-0.6-0.22-1.2-0.2-1.89,0.05c-0.68,0.25-1.29,0.59-1.83,0.98C665.2,421.24,664.54,421.57,663.88,421.99z M678.36,437.06
	c-2.67-0.01-4.43,1.53-5.37,3.39c-0.1,0.01-0.21,0.02-0.31,0.03c-0.69-0.06-1.38-0.16-2.07-0.23c-1.04-1.52-2.36-2.89-4.28-4
	c0.24-0.14,0.48-0.3,0.72-0.44c2.5,0.44,5.07,0.44,7.56-0.32c2.12-0.65,3.05-2.17,2.75-3.63c1.22-0.32,2.47-0.6,3.72-0.85
	c1.31,0.78,2.72,1.55,4.25,2.37c1.11,0.59,2.24,1.15,3.37,1.72c-1.01,0.32-2,0.66-2.93,1c-1.42,0.53-2.91,1.13-4.09,1.96
	C680.77,437.46,679.7,437.07,678.36,437.06z M805.2,421.2c0.02-0.01,0.05-0.02,0.07-0.03c0.03,0.46,0.12,0.9,0.28,1.33
	c-1.99,0.86-3.9,1.79-5.68,2.8C800.85,423.74,802.37,422.48,805.2,421.2z M846.09,435.35c-3.27,2.34-11.65,6.86-15.57,11.51
	c-1.26-0.05-2.53-0.11-3.74-0.14c-0.53-0.01-1.12-0.02-1.67-0.03c-2.71-1.74-6.92-1.65-9.87-0.06c-3.98,0.05-8.19,0.18-12.49,0.46
	c-0.12-0.25-0.24-0.49-0.41-0.71c-1.23-1.57-3.54-2.53-5.69-2.98c-0.51-0.11-1.03-0.18-1.55-0.24c0.89-0.71,1.79-1.41,2.78-2.04
	c0.92-0.59,1.85-1.08,2.78-1.55c0.29,2.07,2.69,4.08,5.3,4.2c1.01,0.05,1.99-0.07,3-0.18c0.53-0.06,1.05-0.12,1.57-0.19
	c0.11-0.02,1.19-0.16,0.59-0.1c0.83-0.08,3.22-0.6,3.92,0.23c0.91,1.06,3.13,0.45,2.66-0.92c-0.33-0.97-0.25-2.13-0.83-3.19
	c-0.63-1.18-1.62-2.35-2.89-3.1c-0.27-0.16-0.54-0.28-0.82-0.41c0.07-0.01,0.14-0.02,0.21-0.04c0.2,0.13,0.44,0.21,0.73,0.19
	c0.91-0.09,2.55,0.61,3.77,0.95c1.97,0.55,3.69,0.72,5.75,0.94c3.23,0.34,7.01,0.64,10.1,1.5c2.39,0.67,5.03-1.48,4.2-3.44
	c-2.04-4.85-6.13-7.79-12.62-8.29c-3.01-0.23-5.96,0.11-8.38,1.69c-0.96,0.63-1.85,1.37-2.52,2.21c-0.01,0.01-0.02,0.03-0.03,0.04
	c-5.44-0.91-11.15-0.13-16.32,1.81c0.53-0.68,1.07-1.36,1.59-2.04c0.13-0.17,0.22-0.34,0.31-0.51c2.76-1.76,5.48-3.58,8.44-5.13
	c2.42,1.53,5.78,1.94,8.44,0.21c9.31,2.04,20.88,2.13,24.59,0.33c2.21-1.07,2.16-3.19,0.74-4.68c-1.74-1.83-4.35-3.05-7.23-3.94
	c0.28-0.26,0.56-0.52,0.83-0.79c0.26-0.05,0.53-0.1,0.79-0.15c2.01,2.32,5.89,3.51,9.63,1.84c0.28-0.12,0.52-0.28,0.79-0.41
	c0.09,0.01,0.18,0.03,0.27,0.05c1.91,2.23,4.29,4.28,6.62,6.16c1.62,1.31,3.4,2.57,5.26,3.77
	C854.45,429.87,850.2,432.41,846.09,435.35z"/>
<path class="st0" d="M884.48,304.7c-0.29-1.76-0.27-5.63-1.82-6.76c-0.91-0.66-2.44-0.39-3.62,0.19c-5.55-8.18-22.79-13-27.47-1.91
	c-1.15-0.81-2.39-1.5-3.54-2.31c-0.38-0.26-0.96-0.19-1.27,0.16c-1.47,1.63-1.89,4.35-2.58,6.42c-0.61,1.84-1.71,3.98-2.02,6.03
	c-5.65,1.69-11.18,4.07-16.65,6.21c-5.72,2.24-11.7,4.29-17,7.6c-11.53,7.19-16.23,22.77-29.64,27.17
	c-0.42,0.14-0.36,0.82,0.09,0.83c0.52,0.01,1.02-0.01,1.52-0.04c-13.51,5.17-26.28,10.96-41.02,11.66
	c-12.53,0.59-24.37,5.04-35.1,12.14c-9.68,6.4-16.68,16.67-15,29.41c0.66,4.99,2.58,9.54,5.57,13.4
	c5.16,6.64,11.33,12.42,16.61,18.99c2.49,3.09,4.99,6.19,7.37,9.38c3.25,4.35,4.58,7.37,4.28,13.1c-0.27,5.13-0.79,11.9,4.8,14.19
	c10.28,4.2,8.15-15.86,7.32-20.75c-2.44-14.21-14.6-24.78-23.25-34.9c-4.98-5.83-11.48-12.6-10.78-21.28
	c0.82-10.08,13.69-13.53,20.97-16.66c15.88-6.82,32.64-8.08,48.95-13.07c2.25-0.69,4.49-1.45,6.71-2.26
	c2.39,4.81,5.59,9.19,8.71,13.44c2.04,2.78,4.13,5.53,6.18,8.3c0.89,1.21,3.88,4.58,4.12,5.78c0.48,2.43-1.43,4.25-2.49,6.03
	c-3.19,5.37-5.02,11.59-6.96,17.56c-2.56,7.91-5.14,15.81-7.71,23.71c-0.23,0.72,0.13,1.59,0.72,1.97
	c7.17,4.61,25.04,10.46,17.66,23.06c-0.76,1.31,1.08,2.97,2.01,1.71c0.28-0.32,0.54-0.66,0.78-1c4.36-5.5,9.92-10.22,8.6-18.41
	c-1.46-9.02-10.12-8.6-15.88-12.72c4.93-7.73,9.28-15.84,12.87-24.39c3.02-7.18,7.16-15.97,7.9-23.91c0.25-2.69-0.83-4.01-2.21-6.11
	c4.98,1.65,10.95,1.57,15.68,1.32c-1.62,11.56-3.75,23.01-6.47,34.34c-0.25,1.04,0.45,2.23,1.51,2.19c6.73-0.2,14.09-0.5,20.01,3.52
	c3,2.04,3.83,4.78,5.88,7.5c0.6,0.8,1.14,1.37,2.07,1.55c3.15,0.62,5.59-4.28,6.73-6.65c0.85-1.75,1.46-3.43,1.82-5.1
	c0.48,0.1,0.94,0.2,1.39,0.27c1.47,0.55,3.4,0.47,4.6,0.32c2.9-0.35,5.72-1.7,7.87-3.84c2.34-2.31,3.2-4.1,0.85-6.64
	c-1.64-1.77-3.34-3.5-5.08-5.16c-1.17-1.11-2.13-2.15-3.55-2.53c0.24-6.58-0.19-13.24,0.06-19.82c0.25-6.5,0.91-13,1-19.51
	c1.02-2.29,1.87-4.68,2.82-6.99c1.72-4.18,3.59-8.34,5.02-12.65c1.61-4.85,2.77-10.8,1.25-15.78c3.59-2.7,6.36-6.85,7.37-11.48
	c0.47-0.27,0.88-0.72,1.17-1.27C885.11,308.61,884.77,306.48,884.48,304.7z M854.03,374.43c0.52,6.4,1.78,12.66,2.14,19.1
	c0.15,2.71-0.06,6.17,0.1,9.5c-1.47-3.11-3.12-6.16-4.47-9.32c-2.59-6.06-4.98-12.36-6.71-18.78c-0.95-3.54-1.03-7.15-0.6-10.78
	c0.06-0.05,0.12-0.1,0.18-0.15c0.33-0.2,0.67-0.43,1.07-0.71c2.26-1.59,5.04-3.97,6.81-6.21c1.8-2.26,3.41-5.28,4.73-8.43
	c-0.47,2.61-0.89,5.23-1.34,7.82C854.94,362.35,853.55,368.42,854.03,374.43z M840.95,398.34c0.62,2.78,0.93,6.07,2.54,8.46
	c-2.1-0.35-4.21-0.6-6.33-0.76c1.6-2.36,2.9-5.2,3.68-8.18C840.88,398.02,840.91,398.18,840.95,398.34z"/>
</svg>
