<?xml version="1.0" encoding="utf-8"?>
<!-- Generator: Adobe Illustrator 27.3.0, SVG Export Plug-In . SVG Version: 6.00 Build 0)  -->
<svg version="1.1" id="Camada_1" xmlns="http://www.w3.org/2000/svg" xmlns:xlink="http://www.w3.org/1999/xlink" x="0px" y="0px"
	 viewBox="0 0 1920 1080" style="enable-background:new 0 0 1920 1080;" xml:space="preserve">
<style type="text/css">
	.st0{fill:#030D18;}
</style>
<path class="st0" d="M1890.09,160.68c4.47-5.08,8.86-10.21,13.07-15.5c6.1-7.67,10.66-15.47,14.19-24.53
	c1.17-2.99,2.04-6.08,2.66-9.21V89.12c-0.24-1.21-0.49-2.43-0.81-3.62c-1.61-6.12-4.74-11.68-6.89-17.62
	c-2.01-5.54-2.05-4.97-1.6-10.8c-0.26,3.36,0.79-4.23,0.96-4.99c0.68-3.03,1.51-6.02,2.29-9.02c1.28-4.96,2.52-9.89,3.37-14.94
	c1.43-8.52,1.63-17.14-0.36-25.19c0.38-0.96,0.72-1.94,1.02-2.93h-52.21c-0.27,3.15-0.4,6.26-0.47,9.52
	c-0.02,1.16-0.01,1.85,0.02,2.28c-0.14,0.34-0.36,1.08-0.7,2.56c-0.3,1.31-0.67,2.6-1,3.91c-0.28-1.53-0.6-3.04-0.94-4.54
	c0.21-4.57,0.27-9.15,0.25-13.73h-8.68c0.46,2.82,0.89,5.64,1.21,8.46c-1.42,6.2-2.84,12.39-4.33,18.58
	c-0.13,0.56-0.28,1.12-0.42,1.68c-0.31-2.14-0.58-4.2-0.73-6.08c-0.61-7.56-1.36-15.1-2.2-22.64h-7.88
	c-0.79,8.4-1.48,16.81-2.01,25.24c-0.07,1.09-0.18,2.25-0.31,3.43c-0.53-0.18-1.05-0.36-1.56-0.55c-0.84-9.28-2.1-18.71-3.65-28.12
	h-11.06c0.02,0.71,0.04,1.42,0.07,2.13c-0.19-0.71-0.37-1.42-0.54-2.13h-13.05c0.58,3.47,1.2,6.93,1.93,10.34
	c-1.28-1.12-2.56-2.24-3.81-3.38c-2.5-2.26-4.96-4.61-7.43-6.96h-20.68c-5.69,2.64-9,7.95-11.75,13.71
	c-3.61-1.83-7.21-3.74-10.8-5.78c-1.59-0.9-2.97,1.08-1.88,2.31c3.03,3.43,6.33,6.69,9.81,9.8c-0.68,1.51-1.37,3-2.1,4.42
	c-0.42,0.8-0.87,1.59-1.3,2.39c-4.18-1.54-8.33-3.13-12.46-4.75c0.45-5.05,0.73-10.12,0.91-15.17c5.07-3.12,10.1-5.18,13.01-3.2
	c1.06,0.73,2.35-0.88,1.4-1.71c-1.02-0.9-2.04-1.56-3.07-2.01h-8.82c-0.45,0.13-0.91,0.26-1.38,0.41
	c-10.5,3.43-20.63,9.7-30.45,14.54c-5.57,2.75-11.11,5.49-16.61,8.31c2.38-2.59,4.66-5.14,6.84-7.55
	c4.51-4.97,9.04-10.26,13.37-15.71h-13.95c-3.1,3.19-6.23,6.35-9.5,9.39c-3.58,3.33-7.48,6.52-11.45,9.68
	c2.91-6.51,6.04-12.89,9.51-19.07h-7.5c-5.22,7.37-9.98,15.06-14.42,22.99c-0.1-7.66-0.59-15.5-1.24-22.99h-11.63
	c-0.49,6.66-0.92,13.33-1.25,20.01c-0.24,4.8-0.21,9.8-0.5,14.76c-0.57-3.11-1.12-6.16-1.55-9.13c-1.23-8.59-2.66-17.16-4.49-25.64
	h-8.48c-0.12,10.46,0.4,20.93,1.09,31.38c0.22,3.37,1,7.95,1.56,12.78c-4.45-14.85-9.52-29.63-14.97-44.16h-7.47
	c1.3,8.08,2.72,16.14,4.27,24.18c-2.38-3.9-5.07-7.66-8.15-11.21c-1.23-1.41-3.22,0.39-2.51,1.83
	c7.79,15.78,12.33,32.58,10.83,50.13c-0.17,2.01-0.68,4.24-1.3,6.57c-0.46-1.42-0.89-2.81-1.26-4.14
	c-3.08-11.2-7.59-23.25-17.33-30.69c-0.5-0.38-1.42-0.05-1.18,0.66c4.58,13.46,5.61,26.92,8.15,40.76
	c1.23,6.71,2.4,14.52,6.68,19.77c-1.52,0.12-3.19,0.29-4.96,0.52c-5.34-8.1-10.24-16.44-14.32-25.31
	c-8.18-17.8-13.08-37-14.87-56.33c-0.5-5.43-0.31-10.98-1.12-16.37c-0.02-0.12-0.06-0.24-0.08-0.36h-49.03
	c0.55,2.48,1.02,4.24,0.43,6.99c-0.28,1.27-1.03,2.58-1.36,3.84c-1.34,5.08-0.28,8.93,0.65,13.86c0.04,0.21,0.53,2.33,0.61,2.35
	c0.45,3.6,0.33,7.29,0.13,10.89c-0.11,2.13-0.41,4.17-1.48,8.67c-4.12,17.37-12.03,33.69-18.57,50.3
	c-2.1,5.34-4.12,10.84-5.86,16.43c-2.57-1.55-5.17-3.17-7.77-4.9c-8.22-5.49-14.97-12.37-20.73-19.99
	c11.07-4.76,20.8-16.68,24.13-25.89c0.22-0.6-0.53-0.99-1.04-0.76c-2.88,1.32-5.72,2.73-8.55,4.16
	c7.51-5.87,14.68-12.14,20.84-18.95c0.91-1.01,0.07-3-1.51-2.46c-13.05,4.48-25.78,11.2-37.75,18.35c-0.02-0.61-0.03-1.22-0.05-1.83
	c13.99-9.22,25.21-23.01,33.5-36.33c1.36-2.18-2.09-4.92-3.83-2.8c-6.66,8.13-14.28,14.48-22.43,20.13c1.32-2.35,2.64-4.7,3.92-7.04
	c1.41-2.58,2.81-5.66,4.3-8.89c0.28-0.13,0.57-0.24,0.85-0.38c1.05-0.53,1.27-1.91,0.65-2.81c3.9-8.2,8.63-16.63,15.9-19.86
	c1.08-0.48,0.54-2.16-0.6-2.11c-3.03,0.14-5.66,1.1-8.03,2.54c0.66-1.18,1.31-2.36,1.97-3.54h-7.92
	c-5.04,5.91-10.04,11.86-14.87,17.92c-0.51,0.64-1.08,1.31-1.69,2.01c-0.56,0.11-0.97,0.19-1,0.16c-1.3-1.07,5.71-13.85,9.21-20.09
	h-12.7c-0.16,0.25-0.33,0.49-0.48,0.74c0-0.25,0-0.49,0-0.74h-13.31c-0.07,0.74-0.15,1.48-0.2,2.22c-0.14,1.77-0.24,3.55-0.32,5.32
	c-0.53-1.05-1.04-2.1-1.53-3.11c-0.67-1.4-1.46-2.9-2.29-4.43h-17.39c-0.11,0.69-0.21,1.38-0.34,2.06
	c-1.15,6.19-2.22,12.31-2.33,18.5c-2.38-2.35-4.69-4.78-6.89-7.33c-3.66-4.24-6.96-8.68-10.05-13.23h-10.94
	c7.56,16.1,18.51,31.47,31.81,43.33c0.04,0.13,0.09,0.26,0.13,0.39c-2.89-1.07-5.63-2.19-8.05-3.49
	c-16.38-8.79-29.56-21.24-36.52-38.01c-0.49-1.17-2.63-1.16-2.52,0.32c1.17,16.83,10.39,30.62,23.73,41.48
	c3.7,3.01,8.82,6.86,14.58,10.55c-9.09-4.13-17.5-9.55-24.84-16.38c-3.83-3.56-9.27,1.76-5.83,5.52c3.9,4.26,8.04,8.21,12.45,11.82
	c-7.22-1.07-14.51-1.58-21.83-1.73c-0.19-0.12-0.43-0.2-0.76-0.17c-0.52,0.05-1.03,0.11-1.55,0.16c-8.58-0.09-17.18,0.26-25.71,0.74
	c-7.57,0.43-15.71,0.65-23.86,1.22c8.47-6.66,15.86-14.59,22.73-23.6c0.96-1.26-1.11-2.67-2.23-1.63
	c-11.22,10.48-25.87,18.5-40.96,24.12c6-4.47,11.5-9.5,16.31-15.2c1.58-1.87-0.34-4.48-2.74-3.36c-21.85,10.2-43.34,20-66.14,27.78
	c-5.06,0.01-9.67,0.37-13.71,4.16c-0.08,0.07-0.12,0.17-0.19,0.25c-0.83,0.25-1.67,0.47-2.5,0.71c-0.96-0.04-1.91-0.06-2.86-0.07
	c13.1-5.6,25.46-12.87,35.79-22.26c1.17-1.06,1.02-2.33,0.26-3.21c1.59-0.04,3.18-0.1,4.77-0.22c1.91-0.15,2.68-2.41,0.98-3.44
	c-13.4-8.16-29.78-12.38-46.17-14.93c0.84-0.29,1.67-0.59,2.51-0.88c10.99-1.11,23.64,5.28,34.05,6.35
	c12.47,1.27,25.98-0.01,37.71-4.28c2.25-0.82,2.87-4.39,0-4.94c-8.76-1.67-17.69-1.62-26.57-2.44c-4.16-0.39-8.09-1.18-11.96-2.13
	c1.38-0.07,2.74-0.16,4.13-0.2c22.66-0.8,46.52-0.15,68.54-5.82c2.52-0.65,2.37-3.98,0-4.7c-9.99-3.01-20.49-4.58-31.17-5.33
	c-0.21-0.18-0.46-0.31-0.68-0.48h-53.9c-1.69,0.38-3.38,0.74-5.05,1.16c-14.85,0.63-30.22,2.28-39.61,12.9
	c-0.63,0.24-1.28,0.49-1.91,0.74c3.76-4.83,7.33-9.78,10.75-14.8h-14.09c-2.91,2.84-5.79,5.7-8.58,8.65
	c0.76-2.87,1.44-5.76,2.11-8.65h-8.53c-1.58,2.83-3.15,5.66-4.64,8.52c-3.55-0.15-7.21,0.3-10.64,1.25
	c-0.42,0.12-0.82,0.28-1.23,0.41c-0.25-3.42-0.68-6.82-1.23-10.19h-5.27c-1.37,5.21-2.65,10.46-3.84,15.74
	c-9.13,7.39-13.81,19.34-13.9,30.69c-7.32-15.3-21.84-30.03-20.72-46.26c0-0.06-0.02-0.11-0.02-0.16H1135
	c-2.5,11.48-1.55,24.48,2.21,36.61c-3.75-2.01-7.32-4.27-10.54-7.79c-5.79-6.34-9.06-13.82-10.75-21.99
	c-0.13-0.65-0.44-5.03-1.83-6.83h-3.28c-6.87,4.19-3.44,17.93-0.35,25.84c-9.38-6.01-19.77-12.74-17.23-24.47
	c0.11-0.5,0.07-0.95-0.03-1.37h-6.04c-3.96,5.69-4.06,10.9-1.92,15.79c-3.77-1-7.23,2.96-5.26,6.47
	c4.71,8.42,15.29,15.07,23.12,20.76c0.98,0.71,2,1.36,2.99,2.06c-12.36-0.36-24.77-1.1-37.08-0.35c-3.3,0.2-3.84,4.3-0.77,5.36
	c13.68,4.71,28.57,6.39,43.11,7.45c-16.21,1.68-33.15-1.07-50.28-1.19c-1.8-0.01-2.6,2.46-0.94,3.29
	c16.15,7.98,35.73,12.38,53.96,11.76c8.46-0.29,16.93-1.64,24.71-4.89c1.26-0.53,2.31-1.05,3.25-1.56c0.77,0.29,1.55,0.58,2.34,0.86
	c-18.74,10.58-39.27,14.87-63.6,12.05c-2.39-0.28-3.21,3.23-1.21,4.22c17.17,8.52,38.29,9.52,57.35,4.18
	c-7.54,4.28-14.97,8.72-22.3,13.37c-0.96,0.61-1.12,1.75-0.73,2.61c-8.25-2.04-16.03-5.72-23.6-10.28c-2.33-1.4-5.33,1.4-3.82,3.62
	c6.71,9.84,17.4,16.13,29.12,19.32c-17.27,4.44-35.91,3.76-52.18-3.67c-5.48-2.5-10.29,4.97-4.83,7.83
	c11.93,6.26,24.67,10.13,37.92,11.04c-2.44,0.69-4.95,1.19-7.61,1.35c-18.26,1.06-32.38-8.14-46.03-18.32
	c-0.54-0.4-1.36-0.05-1.18,0.65c3.16,12.52,13.43,21.93,25.65,27.16c-1.74,0.9-3.47,1.84-5.17,2.83
	c-19.14-0.45-38.52-2.82-57.18-6.59c-0.82-0.16-1.34,0.88-0.58,1.3c8.53,4.77,17.59,8.9,27,12.12c-12.12,2.25-24.3,4.27-36.35,6.54
	c-2.29,0.43-1.72,3.8,0.54,3.79c15.29-0.02,30.91-0.6,46.41-2.23c-5.42,5.09-10.16,10.58-13.86,16.31
	c-2.64,4.09,2.85,9.91,7.27,6.89c11.45-7.81,21.7-16.75,33.56-24.01c3.5,0.15,7.01,0.15,10.53-0.03c2.31-0.12,4.74-0.37,7.19-0.74
	c-7.09,8.78-13.82,17.87-18.64,27.82c-1.04,2.14,1.35,5.46,3.88,3.68c14.84-10.44,26.51-24.65,38.37-37.93
	c4.13-4.62,9.09-9.54,13.8-14.74c-6.25,12.93-14.08,25.2-23.21,36.86c-0.91,1.16,0.9,2.86,2.12,2.01
	c10.27-7.15,19.01-15.66,26.21-25.18c-3.77,7.38-8.17,14.36-14.22,21.47c-1.07,1.26-0.55,3.74,1.57,3.58
	c15.13-1.13,24.19-15.88,30.07-27.62c4.62-9.23,8.54-18.87,12.55-28.35c0.96-2.26,1.99-4.48,2.97-6.67c0.75-0.3,1.47-0.64,2.2-0.97
	c-0.03,0.56-0.09,1.12-0.11,1.68c-0.4,12.59,4.69,32.12-5.87,41.77c-1.67,1.52,0.53,4.37,2.52,3.1
	c15.11-9.64,17.34-23.83,18.31-40.07c0.08-1.42,0.21-2.77,0.36-4.09c5.12,13.17,11.36,25.79,18.46,37.16
	c8.99,14.4,20.32,27.29,34.62,37.2c17.91,12.41,39.87,17.07,58.94,27.46c9.78,5.33,17.63,13.24,27.48,18.4
	c9.44,4.95,19.56,7.72,30.23,8.89c20.6,2.25,41.5-4.38,61.89-1.74c0.29,0.16,0.63,0.35,1.05,0.59c1.51,0.85,3.05,1.75,4.58,2.56
	c1.58,0.84,3.15,1.58,4.73,2.41c0.02,0.01,1.87,0.84,3.26,1.47c0.04,0.05,0.09,0.11,0.13,0.17c-2.88-1.16,0.57,1.46,0.79,1.02
	c0.84,1.08,1.7,2.17,1.69,2.15c2.03,2.94,3.8,6.03,5.9,8.92c8.51,11.72,20.01,21,35.18,23.57c4.28,0.73,8.58,1.14,12.9,1.35
	c0.16,0.37,0.33,0.75,0.5,1.11c-0.32,0.19-0.63,0.38-0.96,0.56c-4.81,2.59-3.98,2.13-9.36,3.77c-4.34,1.32-8.77,2.31-13.11,3.62
	c-15.18,4.57-29.73,11.75-39.78,22.82c-1.05-0.82-2.17-1.54-3.22-2.14c-0.46-0.27-0.96-0.23-1.35-0.02
	c-1.56-1.17-3.2-2.23-4.86-3.17c-0.34-0.19-0.66,0.15-0.55,0.46c-1.03-1.07-2.12-2.09-3.31-2.95c-0.15-0.11-0.42,0.04-0.4,0.22
	c0.24,1.79,0.75,3.55,1.4,5.3c-0.23-0.31-0.48-0.6-0.71-0.91c-1.19-1.6-3.39-1.01-3.97,0.36c-1.56-0.86-3.14-1.62-4.64-2.29
	c-0.29-0.13-0.68,0.14-0.49,0.45c-1.65-1.2-3.33-2.33-5.02-3.34c-0.3-0.18-0.67,0.18-0.48,0.46c5.38,8.41,10.74,17.55,16.91,25.59
	c-0.21,0.61-0.43,1.21-0.61,1.85c-1.16,4.11-1.07,8.72,0.11,13.08c-0.47,0.6-0.97,1.17-1.43,1.78c-2.29,3.61-4.27,7.64-5.55,11.67
	c-2.24,7.02-3.01,14.58-2.54,21.89c0.43,6.75,2.11,13.15,3.33,19.71c-3.63-1.41-7.35-2.59-11.12-3.62
	c-0.04-0.29-0.07-0.59-0.11-0.89c-0.63-4.22-6.05-3.87-8.24-1.1c-8.92-1.89-18.03-3.11-27-4.28c-5.28-0.69-11.07-1.08-16.83-1.78
	c0.72-0.82,1.39-1.67,2-2.57c2.31-3.46,3.95-7.57,4.51-11.61c0.58-2.44,0.46-4.88-0.35-7.32c-1.09-2.65-1.72-4.13-1.92-4.5
	c-1.87-6.61-3.02-12.93-6.11-19.32c-3.43-7.09-7.97-13.63-12.1-20.36c-4.69-7.65-9.22-15.4-13.93-23.04
	c-2.68-4.36-5.54-8.89-9.71-11.96c0.67-19.54-10.84-38.94-16.52-57.17c-0.14-0.45-0.92-0.51-1.02,0
	c-2.11,10.24,0.48,19.97,3.34,29.89c2.48,8.61,3.94,16.21,3.71,23.8c-2.1-0.14-4.23-0.24-6.1-0.72c-3.19-0.81-6.22-1.92-9.09-3.35
	c0.91-2.91,2.04-5.68,3.5-8.19c2.66-4.55,2.15-6.93,1.24-12.38c-0.03-0.17-0.31-0.16-0.34,0c-0.95,4.11-1.14,7.36-3.52,11.12
	c-0.57,0.91-1.07,1.66-1.5,2.4c0.23-3.15,0.13-6.3-0.18-9.45c-0.87-8.74-3.97-16.67-7.7-24.62c-0.06-0.14-0.28-0.04-0.24,0.1
	c3.26,12.92,5.46,25.27,3.87,38.2c-6.84-4.69-12.08-11.11-16.47-17.87c-7.65-11.75-12.97-24.78-21.59-35.98
	c-18.18-23.63-52.36-34.35-62.17-63.9c-0.96-2.91-6.34-3.53-6.9,0c-2.44,15.25,6.47,27.61,19.11,36.41
	c15.94,11.09,34.44,16.93,45.76,33.21c9.06,13.04,14.41,28.1,23.98,40.83c1.16,7.63,1.23,15.28,0.44,23.19
	c-0.11,1.06-0.17,2.14-0.22,3.21c-0.49-1.48-1.11-2.94-1.96-4.38c-4.24-7.16-5.63-13.73-8.18-21.38c-1.36-4.07-3.16-6.96-6.54-9.78
	c-0.18-0.15-0.5,0.05-0.35,0.26c5.05,7.07,3.23,15.04,5.57,22.81c2.45,8.13,6.63,11.61,7.75,19.86
	c-12.87-19.22-23.27-39.18-32.94-60.39c-5.59-12.24-15.47-17.21-29.3-16.64c-15.85,0.65-28.34-4.84-38.8-16.29
	c-1.09-1.19-2.81,0.33-2.16,1.58c6,11.6,15.49,19.8,27.57,25.56c-2.46,0.47-4.94,1.12-7.28,1.13c-5.76,0.02-11.73-0.8-16.67-3.79
	c-0.39-0.24-0.8,0.22-0.61,0.58c3.42,6.15,8.64,10.7,16.03,12.03c2.46,0.44,5.41,0.59,8.23,0.23c-2.58,1.53-5.93,2.69-8.84,2.52
	c-0.34-0.02-0.54,0.44-0.28,0.65c3.88,3.2,8.2,4.36,13.28,2.92c0.27-0.08,0.54-0.16,0.81-0.26c0.43,5.53,1.8,11.48,3.77,17.32
	c-1.89-0.89-3.79-1.79-5.65-2.76c-11.09-8.77-21.62-17.98-26.95-31.41c-0.52-1.3-2.94-1.27-2.79,0.36
	c1.19,12.51,7.74,23.24,16.2,33.13c-2.61-1.53-5.18-3.13-7.71-4.86c-16.86-11.53-30.21-26.03-45.17-39.51
	c-1.05-0.95-3.32-0.01-2.67,1.47c3.43,7.7,8.31,15.51,14.24,23.06c-10.72-7.86-21.12-16.14-31.24-24.62
	c-1.62-1.36-4.66,0.47-3.2,2.34c5.78,7.42,11.98,14.4,18.5,21.06c-14.97-8.51-29.77-17.28-44.91-25.53
	c-1.94-1.06-4.07,1.45-2.42,2.97c11.24,10.3,23.39,19.67,35.96,28.49c-1.76-0.25-3.51-0.49-5.22-0.74
	c-2.97-1.42-5.92-2.89-8.83-4.45c-18.78-10.06-34.53-22.85-51.13-35.72c-1.7-1.32-4.66,0.37-3.27,2.39
	c7.76,11.32,18.01,21.31,29.19,30.04c-4.62-1.18-9.25-2.37-13.88-3.51c-25.1-6.18-53.08-13.02-78.99-7.65
	c-1.25,0.26-1.29,2.19,0,2.43c27.58,5.11,53.85,11.63,80.68,19.44c-17.19,0.05-34.47,1.27-51.92,3.5c-1.14,0.15-0.86,1.93,0.27,1.9
	c22.68-0.68,45.73,0.72,68.51,3.9c-6.9,0.64-13.62,1.48-19.95,2.36c-21.66,3-53.54,6.89-70.2,21.5c-0.93,0.82-0.15,2.15,0.97,2.22
	c10.65,0.72,21.09-2.91,31.48-4.92c13.13-2.53,26.33-4.25,39.66-5.45c20.01-1.8,40.04-0.15,59.93-0.48
	c-5.16,1.74-10.34,3.45-15.54,5.08c-20.27,6.34-41.1,13.99-61.66,19.14c-1.45,0.36-1.21,2.7,0.37,2.56
	c22.42-2.09,42.88-3.51,65-8.97c10.9-2.69,21.67-5.64,32.27-9.23c5.53-1.87,10.97-3,15.25-5.74c0.71,0.24,1.42,0.5,2.13,0.75
	c-3.5,1.15-7,2.31-10.5,3.46c-19.86,6.5-39.6,13.02-59.25,20.02c-1.6,0.57-1.55,3.2,0.44,3.05c25.87-1.96,50.84-6.46,75.8-13.33
	c5.44-1.5,10.87-3.07,16.28-4.73c1.15,0.44,2.3,0.88,3.45,1.33c0.65,0.34,1.31,0.68,1.97,1.02c-4.56,1.8-8.95,3.61-12.95,5.04
	c-17.46,6.19-35.24,12.64-51.47,21.4c-1.46,0.79-0.94,3.41,0.92,3.21c18.42-2.05,36.57-6.66,54.39-11.43
	c1.52-0.41,3.15-0.8,4.82-1.19c0.25,0.4,0.74,0.71,1.26,0.63c11.31-1.62,24.37-2.77,35.94-6.16c0.03,0.01,0.06,0.02,0.09,0.03
	c0.83,0.28,1.63,0.36,2.39,0.3c3.51,1.02,7.18,1.99,10.92,2.75c6.35,12.07,13.44,23.81,20.83,35.43
	c4.37,6.88,8.78,14.12,13.39,21.37c0.18,24.55,1.79,49.16,2.91,73.46c1.09,23.72,2.13,47.44,3.36,71.16
	c0.59,11.45,1.16,22.9,1.82,34.34c0.41,7.19,0.04,15.92,5.03,21.96c6.12,7.4,13.68,6.32,18.55,0.97
	c-0.48,19.52-1.1,39.04-1.81,58.55c-1.12,31.06-3.43,61.88,0.4,92.87c0.73,5.88,9.59,4.85,8.53-1.09
	c-5.51-30.8-1.08-63.39,0.23-94.45c1.17-27.7,2.02-55.41,2.93-83.12c1.83-7.43,3.27-15.05,4.55-22.62c4.35,4.05,9.83,6.93,16.8,8.04
	c27.73,4.41,52.15-23,63.18-43.71c6.84-12.85,12.04-27.48,15.04-42.48c8.9,2.4,17.49,5.31,25.61,9.89c1.69,0.95,3.28,2.01,4.84,3.08
	c8.63,15.37,19.82,29.44,33.94,40.07c4.89,3.68,10.13,6.72,15.6,9.3c3.46,3.05,7.32,5.72,11.98,7.9c8.18,3.83,17.23,7.47,26.17,9.49
	c10.13,2.29,20.67,3.07,31.06,3.65c4.61,0.26,9.51,0.9,14.12,0.72c1.4,0.13,2.06,0.17,2.01,0.12c1.55,0.27,3.1,0.55,4.64,0.88
	c16.01,3.34,31.57,9.32,47.13,14.19c10.58,3.32,22.14,8.27,33.43,8.27c0.15-0.03,0.28-0.05,0.43-0.07
	c18.89,5.81,37.79,11.58,56.6,17.64c7.37,2.38,14.75,4.75,22.03,7.35c-0.06-0.02,2.1,0.77,4.06,1.48c1.89,0.74,6.4,2.46,9.79,3.77
	c0.66,0.32,6,2.54,6.92,2.98c2.08,1,4.14,2.06,6.17,3.15c4.98,2.7,10.11,5.65,14.74,8.99c1.39,1.19,3.53,2.97,4.15,3.47
	c2.66,2.18,5.27,4.41,7.85,6.68c4.31,3.8,8.52,7.7,12.66,11.67c9.24,8.84,18.16,17.99,27.14,27.07
	c13.04,13.18,26.05,26.45,38.73,39.97c-1.56,10.13-2.89,20.34-3.86,30.73c-2.5,26.87-4.48,53.79-6.74,80.67
	c-3.93,46.6-12.63,96.45-43.58,134.46c-31.75,39-83.28,55.35-130.85,69.83c-57.12,17.38-114.97,32.68-173.3,45.98
	c-51.55,11.75-103.62,21.85-156.05,30.16h572.16c4.05-1.87,8.06-3.83,12.03-5.83V612.25c-9.59-8.67-19.36-17.15-29.33-25.45
	c-0.61-1.94-1.27-3.89-2-5.87c-5.89-15.95-12.79-32.31-22.26-46.7c-10.13-15.39-21.82-30.11-33.89-44.16
	c-4.71-5.49-9.2-11.77-14.52-16.75c10.05,9.41,0.44,0.47-1.8-2.8c-1.19-1.74-2.35-3.51-3.42-5.32c-0.22-0.38-0.43-0.76-0.65-1.14
	c-0.07-0.2-0.14-0.42-0.22-0.65c0.59-2.58,1.32-5.66,1.4-6.02c3.26-15.01,3.83-28.03,2.29-42.96c-0.01-0.09-0.02-0.18-0.03-0.27
	c0.34-0.3,0.69-0.59,1.03-0.89c12.32-11.19,22.75-24.56,26.67-40.5c2.53-10.29,1.92-19.35,0.51-29.15
	c5.19-6.72,8.35-14.94,10.79-22.96c1.69-5.55,2.82-11.26,3.48-17.03c10.45-24.04,17.05-48.37,19.8-74.23
	c0.17-0.2,0.34-0.41,0.49-0.65c5.23-8.76,9.35-17.07,12.62-26.6c0.14-0.4-0.38-0.58-0.67-0.37c-0.49,0.37-0.96,0.72-1.44,1.08
	c1.52-3.39,2.49-6.86,3.65-10.5c0.09-0.28-0.3-0.5-0.52-0.29c-0.83,0.81-1.62,1.63-2.42,2.45c2.02-4.04,3.94-8.31,3.67-12.72
	c-0.02-0.27-0.33-0.5-0.6-0.33c-0.65,0.43-1.25,0.89-1.83,1.4c0.35-1.1,0.74-2.19,1.03-3.3c0.04-0.12,0.09-0.24,0.13-0.37
	c0.01-0.03-0.01-0.06-0.01-0.09c0.65-2.58,1.11-5.19,1.21-7.84c0.02-0.45-0.66-0.76-0.98-0.39c-3.89,4.55-6.48,10.01-8.82,15.53
	c-1.42,1.9-2.78,3.83-4.11,5.75c-0.03-2.93-0.08-5.85-0.12-8.77c-0.02-1.37-0.09-2.98-0.04-4.52c0.32-0.35,1.4-4.07,1.54-4.55
	c0.03-0.12,0.06-0.22,0.09-0.32c0.17-0.24,0.36-0.52,0.59-0.87c0.83-1.26,1.95-3.02,2.52-4.33c1.97-2.77,1.78-2.85-0.58-0.24
	c1.12-1.33,2.25-2.64,3.4-3.95C1887.79,163.28,1888.94,161.98,1890.09,160.68z M1131.35,103.92c-4.93,0.27-9.66-0.09-14.24-0.97
	c5.29-1.69,10.52-3.47,15.72-5.32c-0.79,1.11-1.51,2.36-2.23,3.75C1130.15,102.26,1130.58,103.38,1131.35,103.92z M1150.46,94
	c-0.49-0.86-1.17-1.59-1.97-2.17c2.86-1.1,5.71-2.22,8.56-3.36c0.04,0.01,0.09,0.02,0.13,0.03
	C1154.91,90.26,1152.67,92.12,1150.46,94z M1188.9,260.06c-0.2-0.53-1.02-0.73-1.34-0.17c-1.45,2.6-1.89,5.85-1.73,9.19
	c-1.79-4.05-3.83-7.97-6.47-11.52c3.43-1.77,6.54-4.8,6.6-8.37c1.13,0.96,2.1,2.08,2.81,3.44c3.33,6.46,4.14,14.27,6.23,21.16
	c0.07,0.23,0.16,0.45,0.23,0.68C1192.79,269.84,1190.71,264.99,1188.9,260.06z M1258.58,323.58c-0.22-4.29-0.46-8.59-0.75-12.87
	c-0.03-0.38-0.15-0.72-0.29-1.04c-0.2-4-0.46-7.95-0.17-11.55c0.49-6.18,0.1-11.95-1.11-17.55c3.59,3.83,7.68,7.17,12.11,10.03
	c-1.09,5.6-1,8.92,2.2,14.64c0.05,0.08,0.1,0.16,0.15,0.24c0.12,1.44,0.26,2.89,0.43,4.35c0.02,0.18,0.31,0.19,0.31,0
	c0.02-0.99,0.05-2.02,0.09-3.04c1.71,2.62,3.68,4.95,4.78,8.12c2.31,6.66,1.27,13.95,2.82,20.58c-0.02,0.31-0.04,0.61-0.06,0.92
	c-0.14,2.91-0.46,6.01-0.77,9.19c-0.26,0.27-0.5,0.56-0.71,0.88C1271.03,339.01,1264.57,331.47,1258.58,323.58z M1279.27,534.94
	c-1.96,8.52-3.3,18.49-6.93,26.49c-0.49,1.61-0.98,3.22-1.47,4.83c-2.39-3.82-3.54-7.85-3.46-12.1c-0.68-5.19-0.45-10.62-0.67-15.85
	c-1.59-37.71-3.59-75.4-5.24-113.1c-0.48-10.86-0.76-21.73-1-32.6c3.69,4.96,7.6,9.71,11.75,14.2c-0.97,19.26,0.05,38.64,2.37,57.73
	c1.15,9.47,2.11,21.84,5.01,33.46C1279.51,510.31,1279.4,522.62,1279.27,534.94z M1285.08,309.45c-0.69,1.56-1.28,3.09-1.84,4.62
	c-2.81-4.85-6.75-8.14-9.22-14.01c-0.74-1.76-1.23-3.21-1.56-4.49c0.11-0.79,0.21-1.58,0.34-2.36c4.93,2.68,10.2,4.79,15.72,6.19
	C1287.73,302.65,1286.62,305.97,1285.08,309.45z M1290.96,455.69c0.04-4.94,0.1-9.87,0.11-14.81c0.02-5.71,0.16-11.52,0.35-17.41
	c0.34,0.22,0.66,0.47,1,0.69C1292.2,434.67,1291.7,445.19,1290.96,455.69z M1292.62,322.6c0.72-2.43,1.49-4.83,2.3-7.24
	c0.4,0.97,0.77,1.92,1.22,2.94c2.54,5.8,5.11,11.58,7.61,17.39c2.48,5.76,5.03,11.55,7.02,17.48c0.79,2.35,1.77,4.85,2.07,7.32
	c0.19,1.56-0.05,2.84-0.05,3.4c-2.14,1.81-4.11,3.65-6.27,4.97c-0.02,0.01-1.02,0.42-2.26,0.96c-1.68-4.18-3.96-8.37-5.18-12.39
	C1295.65,346.08,1295.65,333.97,1292.62,322.6z M1364.96,479.64c-8.54,16.94-35.27,52.42-59.15,39.01
	c-4.34-2.44-7.48-6.08-9.85-10.33c0.4-2.67,0.81-5.36,1.21-7.96c3.14-20.33,5.34-40.87,5.86-61.41c0.08-3.08,0.12-6.17,0.13-9.26
	c22.76,9.56,48.75,8.38,73.36,13.83C1374.32,455.81,1370.9,467.86,1364.96,479.64z M1815.77,32.91c0.03,0.09,0.06,0.17,0.09,0.26
	c-4.86-1.44-9.63-2.99-14.37-4.61c1.08-1.58,2.13-3.18,3.13-4.79C1808.21,27.04,1811.91,30.12,1815.77,32.91z M1807.45,56.88
	c-1.99-0.25-3.98-0.52-5.97-0.81c0.51-0.34,1.03-0.67,1.53-1.02C1804.44,55.64,1805.93,56.26,1807.45,56.88z M1802.55,21.83
	c-1.72,1.78-3.45,3.54-5.19,5.3c-3.04-1.09-6.05-2.24-9.05-3.43c1.86-3.69,3.52-7.46,4.89-11.31
	C1796.25,15.62,1799.35,18.8,1802.55,21.83z M1794.37,51.51c-1.88,0.81-3.78,1.59-5.66,2.39c-2.48-0.49-4.95-1.01-7.42-1.55
	c1.52-1.5,3.05-3,4.51-4.54C1788.61,49.09,1791.47,50.32,1794.37,51.51z M1782.95,1.08c1.79,2.01,3.58,4.02,5.39,6.02
	c-2.59,4.5-5.33,8.89-8.29,13.15c-2.48-1.08-4.96-2.19-7.43-3.35C1774.65,10.28,1777.49,4.11,1782.95,1.08z M1778.81,44.53
	c-2.27,1.95-4.59,3.85-6.94,5.71c-0.51-0.12-1.02-0.23-1.53-0.35c0.66-0.76,1.3-1.49,1.86-2.16c1.28-1.5,2.48-3.08,3.7-4.64
	C1776.86,43.58,1777.84,44.05,1778.81,44.53z M1770.18,25.88c1.19,0.92,2.41,1.8,3.63,2.68c-0.7,0.87-1.44,1.72-2.17,2.57
	c-0.88-0.31-1.75-0.64-2.63-0.95C1769.42,28.81,1769.8,27.37,1770.18,25.88z M1770.15,73.98c3.13,1.87,5.83,4.34,7.59,7.33
	c-1.89,0.33-3.76,0.69-5.64,1.04c-2.87-2.39-6.45-3.9-10.22-4.59C1764.66,76.53,1767.42,75.29,1770.15,73.98z M1779.69,86.74
	c0.07,0.46,0.13,0.93,0.15,1.41c0.07,1.45-0.13,2.93-0.49,4.43c-0.32,0.19-0.68,0.39-1.05,0.59c-0.31-1.69-0.84-3.34-1.59-4.9
	C1777.71,87.76,1778.72,87.27,1779.69,86.74z M1756,105.21c-0.05-0.02-0.1-0.02-0.15-0.04c2.39-0.17,4.78-0.36,7.18-0.55
	c0.19,0.12,0.38,0.23,0.56,0.34c-0.09,0.05-0.18,0.1-0.28,0.15c-1.88,0.95-3.98,1.71-6.07,2.51
	C1757.6,106.73,1757.03,105.53,1756,105.21z M1762.18,84.19c-3.91,0.75-7.83,1.51-11.74,2.25c-2.38-0.43-4.78-0.82-7.16-1.39
	c1.06-0.38,2.17-0.75,3.21-1.12c3.29-1.19,6.54-2.46,9.75-3.78C1758.24,81.47,1760.32,82.74,1762.18,84.19z M1740.61,54.99
	c1-2.74,1.83-5.52,2.59-8.33c0.08,0.08,0.16,0.16,0.28,0.23c0.86,0.51,1.76,0.98,2.64,1.47c-0.75,0.99-1.49,1.99-2.27,2.97
	C1742.78,52.67,1741.7,53.86,1740.61,54.99z M1746.47,30.11c0.17-1.3,0.31-2.6,0.45-3.9c3.23,2.14,6.5,4.2,9.79,6.2
	c-2.56,4.41-5.33,8.7-8.31,12.86c-1.3-0.23-2.59-0.47-3.89-0.68c-0.28-0.05-0.53,0-0.76,0.09c0.96-3.86,1.73-7.77,2.33-11.72
	c0.35-0.25,0.7-0.48,1.04-0.73C1748.04,31.55,1747.66,29.99,1746.47,30.11z M1723.05,24.39c3.46-2.24,6.93-4.49,10.38-6.75
	c2.06-1.35,6.6-5.18,11.55-8.6c-0.87,3.66-1.83,7.34-2.88,11c-0.72-0.29-1.45-0.55-2.16-0.84c-1.15-0.47-2,0.88-0.98,1.6
	c0.81,0.57,1.62,1.11,2.43,1.66c-1.04,3.46-2.15,6.91-3.4,10.31c-5.99,1.96-11.9,4.09-17.8,6.26
	C1721.52,34.25,1722.48,29.35,1723.05,24.39z M1740.4,88.26c-4.18,0.72-8.37,1.41-12.59,2c3.77-1.19,7.43-2.41,11.03-3.65
	C1739.33,87.19,1739.85,87.74,1740.4,88.26z M1734.91,40.44c-2.04,4.69-4.36,9.26-7.01,13.63c0-2.07-1.66-4.11-4.23-3.17
	c-2.99,1.1-5.99,2.14-8.98,3.15c0.4-0.88,0.79-1.76,1.17-2.65C1722.34,47.95,1728.71,44.34,1734.91,40.44z M1725.89,57.26
	c-2.57,3.88-5.42,7.58-8.62,11.05c-4.84,5.25-10.34,9.99-16.57,13.64c-1.67,0.3-3.34,0.57-5.02,0.83c4.41-4.89,8.4-10.11,11.88-15.6
	C1713.87,64.26,1720,60.98,1725.89,57.26z M1671.85,56.51c0.3-0.68,0.61-1.35,0.9-2.04c12.7-4.74,25.21-14.09,35.39-20.52
	c3.13-1.98,6.25-3.99,9.37-6c-2.06,5.04-4.37,9.94-6.97,14.7c-4.95,1.88-9.89,3.78-14.85,5.67c-7.34,2.79-15.91,5.22-23.92,8.41
	C1671.8,56.66,1671.82,56.59,1671.85,56.51z M1659.71,81.37c8.75-1.29,17.34-3.2,25.71-5.73c-0.12,0.11-0.22,0.23-0.33,0.34
	c-4.24,4.04-8.76,7.53-13.45,10.7c-1.64,0.36-3.27,0.76-4.88,1.2c-2.87,0.79-4.24,2.64-4.54,4.68c-0.04,0.03-0.09,0.05-0.13,0.08
	c-2.42,0.45-4.76,1.24-6.99,2.6c0.01,0.03,0.02,0.05,0.03,0.08c-0.17,0.1-0.32,0.22-0.47,0.34c-1.37,0.12-2.75,0.25-4.13,0.36
	C1653.89,91.26,1656.95,86.3,1659.71,81.37z M1577.2,81.64c2.66,6.58,5.79,12.79,9.13,18.86c-4.03-3.7-8.03-7.44-11.96-11.22
	C1575.33,86.74,1576.3,84.2,1577.2,81.64z M1572.55,94.19c0.29-0.76,0.55-1.52,0.84-2.27c2.52,4.45,4.88,9.04,7.83,13.24
	c-3.63-1.85-7.13-3.92-10.49-6.19C1571.34,97.38,1571.94,95.79,1572.55,94.19z M1568.17,105.75c2.42,3,5.09,5.76,8.2,8.23
	c-3.55-0.39-7.07-1.01-10.5-1.85C1566.63,109.99,1567.38,107.86,1568.17,105.75z M1454.36,15.69c0.59,1.62,1.15,3.25,1.75,4.87
	c1.67,4.53,3.02,11.03,3.03,16.06c-0.29-0.25-0.57-0.5-0.86-0.74c-1.14-3.15-2.19-6.3-2.97-9.43
	C1454.45,22.98,1454.25,19.36,1454.36,15.69z M1424.36,60.68c0.19-0.05,0.34-0.14,0.5-0.22c4.36,3.03,8.97,5.72,13.87,8.05
	c-8.34-1.36-16.65-3.66-24.94-5.58C1417.33,62.27,1420.86,61.55,1424.36,60.68z M1255.53,44.22c5.05-0.56,10.09-1.11,15.15-1.57
	c0.07-0.01,0.12-0.04,0.19-0.05c4.03,0.44,8.07,0.74,12.11,0.85c-10.15,4.34-20.19,8.61-30.48,12.32c0.56-0.91,0.36-2.15-1.08-2.52
	c-1.91-0.5-3.85-0.91-5.79-1.33C1249.02,49.3,1252.32,46.7,1255.53,44.22z M1248.99,56.99c-5.73,1.98-11.57,3.76-17.55,5.26
	c2.02-1.36,4-2.76,5.96-4.18C1241.28,57.78,1245.15,57.44,1248.99,56.99z M1221.19,35.35c1.91,0.1,3.91,0.29,5.91,0.54
	c-1.48-0.01-2.95-0.03-4.44-0.01c-0.84,0.01-1.7,0.01-2.57,0.01C1220.47,35.71,1220.82,35.52,1221.19,35.35z M1222.67,47.74
	c5.68-0.5,11.35-1.11,17.02-1.74c-2.04,1.28-4.09,2.54-6.18,3.75c-5.02-0.7-10.1-1.21-15.19-1.53
	C1219.78,48.04,1221.24,47.86,1222.67,47.74z M1189.51,16.63c1.29-0.98,2.67-1.83,4.06-2.55c1.81-0.94,3.73-1.61,5.67-2.01
	c-1.77,3.49-3.49,7-5.16,10.5c-1.65,3.48-3.7,7.13-5.41,10.87C1189.31,27.87,1189.61,22.24,1189.51,16.63z M1199.38,60.79
	c-2.65-0.96-5.4-1.18-8.18-0.93c-0.07-0.16-0.11-0.33-0.2-0.48c7.57-0.02,15.22-0.06,22.86-0.22c-4.34,1.57-8.65,2.78-13,3.74
	C1200.97,61.94,1200.31,61.12,1199.38,60.79z M1478.24,212.45c-15.8-19.38-39.8-25.11-64.25-20.35c6.15-1.2-13.03,1.94-8.24,1.26
	c-1.9,0.27-3.78,0.53-5.67,0.87c-3.77,0.68-7.49,1.58-11.17,2.6c-3.58,1-7.13,2.12-10.67,3.25c-2.86-2.64-5.89-5.04-9.21-7.15
	c-2.3-1.46-4.36-0.15-5.04,1.73c-1.98-1.25-3.98-2.47-6.02-3.63c-0.46-0.26-0.93,0.17-0.85,0.62c0.2,1.07,0.5,2.13,0.87,3.16
	c-2.68-2.11-5.42-4.15-8.29-6.08c-0.38-0.25-0.81,0.23-0.61,0.58c1,1.68,2.04,3.32,3.11,4.93c-1.4-0.98-2.81-1.98-4.19-3.03
	c-0.29-0.22-0.78,0.06-0.56,0.41c3.21,5.01,5.81,10.1,9.19,14.87c-8.32,2-17.01,3.12-25.14-0.14c-9.11-3.65-17-9.75-25.89-13.85
	c-18.07-8.33-38.23-12.07-55.33-22.33c-23.12-13.88-36.21-37.23-45.22-61.31c11.24,4.16,22.62,7.86,33.63,12.55
	c3.11,1.32,5.86-2.85,2.73-4.42c-5.52-2.77-10.92-5.68-16.29-8.64c19.47,5.76,39.61,9.44,59.89,10.5c2.21,0.12,2.24-2.71,0.48-3.38
	c-19.24-7.32-38.49-14.51-57.71-21.81c1.76-0.34,3.54-0.72,5.32-1.16c8.64,2.19,17.22,4.52,25.78,6.99
	c17.17,4.97,34.09,9.84,51.57,13.66c2.15,0.47,3.24-2.14,1.47-3.3c-14.49-9.46-29.53-16.41-45.94-22.14
	c1.47-0.16,2.95-0.31,4.4-0.47c1.43-0.16,2.84-0.36,4.26-0.53c7.57,1.93,15.2,3.7,22.57,5.9c17.02,5.09,34.35,12.13,52,14.78
	c2.43,0.36,5.23-2.6,2.76-4.49c-12.91-9.87-29.52-15.9-45.08-21.18c7.32-1.37,14.61-2.85,21.82-4.56c11.1,2.04,21.9,5.41,26.5,6.41
	c15.18,3.3,32.64,6.16,46.42-2.4c1-0.62,1.04-2.47-0.37-2.69c-12.75-1.98-25.16-3.47-37.65-6.75c-2.45-0.64-4.9-1.31-7.35-1.97
	c1.05-0.32,2.11-0.61,3.16-0.93c3.92-0.35,7.84-0.69,11.76-1.04c8.13-0.73,16.32-1.39,24.48-2.28
	c12.03,10.95,32.84,16.01,48.1,18.13c5.58,0.78,12.65,1.6,20.01,1.85c11.45,19.78,27.16,34.21,46.71,44.61
	c-1.14,6.58-1.66,13.21-1.24,19.83c0.72,11.49,3.59,22.18,8.96,32.51c2.05,3.94,4.24,8.45,6.72,12.04c0.05-0.08,0.08-0.15,0.14-0.23
	c-0.01,0.16-0.01,0.29-0.01,0.43c0.07,0.11,0.14,0.21,0.19,0.31c-0.05,0.17-0.13,0.37-0.21,0.59c0,0.93,0.1,0.79,0.29-0.4
	c0.46,1.03-0.14,1.33-0.52,1c-0.59,1.53-1.37,3.4-0.95,2.79c-0.37,0.66-0.72,1.32-1.11,1.97c-0.65,1.05-5.32,7.4-4.49,6.49
	c-4.69,5.73-9.8,11.15-14.51,16.87c-0.78,0.94-1.54,1.9-2.28,2.85c-3.04-0.52-6.15-0.88-9.38-1.19c-1.71-0.16-3.43-0.23-5.15-0.31
	C1484.39,220.91,1481.68,216.66,1478.24,212.45z M1764.4,303.39c0.07,2.19-0.08,4.39-0.06,6.57c-3.61,7.42-6.21,15.22-8.45,23.09
	c-0.27,0.94-0.52,2.44-0.84,3.98c-0.05,0.05-0.11,0.09-0.16,0.14c-0.06,0.04-0.11,0.07-0.17,0.11c-6.54,4.45-13.15,9.03-18.77,14.55
	c-16.15,15.86-24.81,37.1-23.28,59.19c0.4,5.72,1.62,11.37,1.77,17.11c0.02,0.54,0.01,1.09,0.01,1.63
	c-0.41,1.59-0.66,3.79-0.92,4.96c-4.39,19.34-6.34,37.65-0.02,56.88c0.59,1.78,1.23,3.54,1.91,5.29c-0.25-0.03-0.5-0.05-0.75-0.08
	c-15.28-1.69-30.64-2.99-46.02-4.16c-8.49-7.34-15.9-10.87-26.28-15.12c-16.84-6.88-33.29-14.25-51.35-17.74
	c-18.78-3.62-36.48-3.53-55.43-2.99c-1.5,0.04-11.72-0.61-9.17-0.02c-2.62-0.48-5.21-1.14-7.75-1.89
	c-1.11-0.33-10.38-4.24-3.39-1.03c-7.72-3.55-13.31-4.77-21.91-6.25c8.5,1.47-0.99-0.41-2.82-0.82c-1.64-0.36-3.25-0.8-4.86-1.24
	c-3.84-5.28-7-10.91-9.94-16.69c-0.39-0.77-0.7-1.35-0.94-1.8c-0.17-0.52-0.43-1.26-0.81-2.31c-0.72-1.98-1.51-3.93-2.23-5.91
	c-2.74-7.6-4.87-15.1-8.93-22.24c-3.28-5.78-3.28-4.24-5.54-11.26c-0.21-0.66-1.38-4.47-1.89-6.15c0.1-2,0.08-2.98-0.03-3
	c0.14-0.48,0.28-0.96,0.42-1.43c1.76-2.54,6.24-9.58,7.74-15.01c1.51-5.5,1.52-10.83,0.33-15.77c1.65-0.85,3.1-1.6,3.32-1.68
	c6.03-2.31,16.87-4.62,24.51-7.47c22.36-8.34,43.78-23.71,44.49-48.58c0.1-3.42-0.4-6.87-0.97-10.25c0.84-4.34,1.31-8.6,1.26-12.71
	c0.16-0.3,0.32-0.6,0.49-0.89c1.53-2.53,3.27-4.94,5.06-7.31c0.27-0.36,0.5-0.67,0.69-0.92c0.27-0.31,0.64-0.73,1.19-1.37
	c1.01-1.18,2.03-2.35,3.05-3.53c2.28-2.63,4.57-5.24,6.8-7.9c4.82-5.76,9.88-11.62,13.51-18.16c4.2-7.55,6.62-15.28,7.3-23.07
	c4.63-7.07,7.96-15.26,9.61-22.41c0.21-0.89-0.88-1.5-1.59-0.88c-0.62,0.54-1.2,1.13-1.8,1.69c0.89-3.41,1.55-6.59,1.99-9.26
	c0.08-0.48-0.44-0.79-0.84-0.47c0.11-0.21,0.19-0.44,0.31-0.65c0.31-0.59-0.32-1.2-0.94-0.89c-0.16,0.08-0.3,0.17-0.46,0.26
	c0.62-0.96,1.23-1.93,1.88-2.87c0.18-0.25-0.19-0.63-0.45-0.43c-4.32,3.16-8.37,6.28-12.06,9.9c-0.59-1.34-1.22-2.67-1.93-4
	c-2.38-4.47-5.65-8.61-7.75-13.22c0.67,1.24-1.5-5.6-1.67-6.25c-1.21-4.55-0.27-1.83-0.17-0.7c-0.14-1.56-0.21-3.12-0.23-4.69
	c-0.03-2.3,0.43-8.65,0.45-8.79c0.68-4.68,3.56-14.63,5.81-21.24c0.12-0.37,0.27-0.73,0.4-1.1c7.73,5.53,16.03,9.16,26.07,9.58
	c1.44,0.06,2.95,0.05,4.44-0.07c1.64,0.51,3.28,0.99,4.92,1.37c1.21,2.05,2.43,4.09,3.62,6.18c9.19,16.12,1.76,37.06,6.72,54.49
	c9.28,32.66,39.32,55.57,70.96,68.31c4.94,1.99,9.88,3.88,15.01,5.38c1.78,0.52,3.57,1,5.37,1.44c0.3,0.07,1.33,0.28,2.29,0.46
	c1.61,0.64,6.6,2.28,8.19,2.85c2.13,0.77,4.19,1.52,6.38,2.14c3.49,0.99,7.08,1.57,10.6,2.4c5.01,1.19,9.9,2.34,15.03,3.1l6.31,0.8
	c0.54-0.1,1.52,0.07,2.54,0.32c0.66,0.08,1.32,0.17,1.99,0.25c-0.64-0.08-1.28-0.16-1.92-0.24c1.41,0.35,2.88,0.84,3.36,0.95
	c0.42,0.09,0.8,0.15,1.15,0.19c0.31,0.54,0.64,1.07,0.92,1.62c0.41,0.82,0.78,1.51,0.88,1.76c1.38,3.48,2.53,7.04,3.42,10.67
	c0.25-0.09,0.52,0.57,0.5,2.46c0,0.23,0.01,0.46,0.01,0.69c0.21,1.24,0.46,2.47,0.71,2.73c-0.27-0.28-0.49-0.58-0.69-0.88
	C1764.04,296.5,1764.3,299.95,1764.4,303.39z M1806.34,170.63c-3.47,8.99-4.42,18.19-4.87,27.49c-8.39-3.43-17.41-5.31-26.77-5.06
	c-12.6,0.35-25.8,2.45-37.57,6.82c-3.46,1.29-11.06,2.19-11.99,4.81c-2.33,0.97-1.78,0.87,1.65-0.32c-0.85,0.29-1.69,0.58-2.54,0.87
	c-3.33,1.06-6.99,1.68-10.22,2.96c-0.76,0.3-1.2,0.53-1.47,0.71c-0.34-0.07-0.8-0.13-1.45-0.19c-1.83-0.17-3.7-0.23-5.53-0.36
	c-5.55-0.4-2.31-0.28-1.09-0.09c-1.85-0.29-3.69-0.62-5.53-0.99c-8.11-1.64-14.41-3.53-19.98-6.61c-11-6.07-20.19-14.48-24.83-25.02
	c-7.95-18.04-5.82-37.79-18.27-54.36c-1.14-1.51-2.26-3.02-3.38-4.54c5.48,0.15,10.86-0.62,16.09-2.06
	c6.26,3.3,13.06,5.74,19.22,7.48c24.35,6.87,47,3.85,71.3-0.51c1.69-0.3,1.09-2.49-0.38-2.64c-14.01-1.41-28.77-2.5-43.09-4.61
	c18.19,1.21,38.92,1.76,55.37-3.85c-1.04,0.66-2.02,1.41-2.85,2.31c-0.24,0.26-0.18,0.6,0.11,0.79c4.4,2.95,10.2,1.79,15.14,0.02
	c-7.8,2.87-16.14,4.79-23.06,9.07c-0.36,0.22-0.34,0.83,0.13,0.93c10.81,2.23,24.32-0.67,34.31-4.78c1.79-0.74,3.79-1.62,5.8-2.66
	c-0.68,0.54-1.37,1.07-2.11,1.56c-6.44,4.35-14.75,6.59-19.86,12.51c-0.27,0.31-0.19,0.8,0.25,0.92c8.51,2.24,23.41-2.1,32.11-9.67
	c-0.05,0.09-0.1,0.18-0.16,0.27c-3.13,5.03-7.2,9.73-10.81,14.47c-0.31,0.41,0.11,0.94,0.57,0.95c5.95,0.16,12.55-3.34,17.26-8.32
	c-0.87,3.52-2.04,6.93-3.49,10.02c-0.22,0.46,0.23,0.93,0.73,0.69c5.74-2.74,10-6.3,12.55-11.41c0.16,1.81,0.33,3.63,0.45,5.46
	c0.02,0.26,0.34,0.33,0.5,0.13c3.37-4.4,5.08-7.98,5.1-13.51c0.01-1.39-0.07-2.76-0.26-4.1c0.95,0.22,1.9,0.39,2.85,0.52
	c2.46,3.23,4.27,7.09,5.83,11.78c1.27,3.8,2.52,7.6,3.8,11.39C1817.85,148.85,1810.99,158.57,1806.34,170.63z M1797.42,105.99
	c0.19-0.04,0.39-0.09,0.58-0.14c0.62,0.16,1.24,0.32,1.85,0.5c-0.03,0.16-0.06,0.32-0.08,0.49c-0.15,0.06-0.29,0.14-0.4,0.25
	c-0.58,0.57-1.09,1.16-1.56,1.77C1797.79,107.92,1797.66,106.96,1797.42,105.99z M1816.57,95.02c-0.82,0.66-1.66,1.29-2.51,1.92
	c1.19-1.1,2.31-2.26,3.32-3.45c2.7-3.19,5.15-7.41,4.95-11.66c-0.05-1.11-0.67-4.62-2.59-4.29c-4.32,0.73-8.07,5.53-11.5,9.27
	c0.72-3.11,0.83-6.2,0.06-8.86c-0.1-0.34-0.58-0.58-0.91-0.35c-4.07,2.8-7.1,6.95-10.32,10.64c1.29-3.52,1.84-7.29,1.29-10.83
	c-0.04-0.28-0.43-0.37-0.65-0.25c-2.47,1.28-4.62,2.99-6.65,4.85c-2.32-5.54-7.09-9.93-12.73-12.09c3.11-1.64,6.2-3.32,9.23-5.09
	c4.49,1.23,9.03,2.32,13.59,3.31c-3.85,0.2-7.7,0.32-11.55,0.35c-1.8,0.01-1.73,2.45,0,2.6c5.91,0.53,20.46,1.69,35.87,1.23
	c4.21,0.54,8.4,0.99,12.53,1.36c2.4,2.98,5.26,6.37,8.43,9.52c0.12,0.24,0.31,0.42,0.56,0.55c0.06,0.06,0.12,0.11,0.18,0.17
	c-2.71,6.29-7.22,12.3-11.9,16.98c-1.21,1.21-2.59,2.16-4.04,3.02c5.59-3.77,11.68-10.76,7.03-17.09c-0.25-0.33-0.67-0.31-0.92,0
	c-1.86,2.32-3.76,4.3-5.79,6.08c2.11-4.59,2.39-9.72-0.27-15.01c-0.22-0.43-0.92-0.4-1.15,0
	C1826.7,83.86,1822.06,90.6,1816.57,95.02z M1863.24,101.95c-0.06,0.23-0.1,0.41-0.13,0.59c-0.23,0.21-0.52,0.49-0.9,0.92
	c-0.44,0.49-3.16,3.79-2.93,3.69c-2.85,3.03-5.79,5.96-8.84,8.82c-3.72,3.48-7.39,6.87-10.97,10.25c-2.32-3.85-5.37-7.5-8.82-10.88
	c4.57-1.6,8.78-4.31,12.17-8.15c4.14-4.69,7.7-12.35,8.54-19.62c3.42,2.74,7.08,4.94,10.87,5.97c0.04,0.12,0.09,0.23,0.13,0.35
	c0.55,1.51,1.01,3.05,1.41,4.61c0,0.31,0.01,0.84,0.04,1.58C1863.61,100.7,1863.43,101.33,1863.24,101.95z"/>
<path class="st0" d="M1303.38,274.82c0.28,0.52,0.7,0.96,1.17,1.22c0.92,4.35,3.67,8.3,7.29,10.91c-1.69,4.61-0.66,10.2,0.88,14.77
	c1.36,4.06,3.18,7.99,4.84,11.94c0.92,2.18,1.73,4.43,2.72,6.6c-0.08,6.08,0.44,12.17,0.52,18.24c0.09,6.15-0.53,12.36-0.46,18.51
	c-1.47,0.31-2.49,1.26-3.72,2.27c-1.83,1.5-3.63,3.08-5.37,4.69c-2.48,2.3-1.65,4,0.7,6.22c2.16,2.05,5.03,3.38,8,3.79
	c1.24,0.17,3.22,0.29,4.75-0.18c0.46-0.06,0.95-0.13,1.44-0.22c0.33,1.57,0.92,3.15,1.75,4.81c1.12,2.24,3.5,6.88,6.76,6.38
	c0.96-0.15,1.53-0.66,2.17-1.39c2.18-2.49,3.1-5.03,6.25-6.85c6.21-3.6,13.77-3.13,20.7-2.77c1.1,0.06,1.85-1.03,1.62-2.01
	c-2.5-10.65-4.4-21.39-5.77-32.23c4.86,0.36,11.01,0.59,16.18-0.83c-1.47,1.93-2.62,3.13-2.44,5.65c0.55,7.44,4.59,15.75,7.51,22.54
	c3.48,8.08,7.74,15.77,12.62,23.11c-6.04,3.7-14.94,3.08-16.68,11.47c-1.58,7.62,4.03,12.17,8.37,17.41
	c0.24,0.33,0.49,0.65,0.77,0.96c0.93,1.2,2.87-0.31,2.12-1.55c-7.28-11.96,11.28-16.96,18.78-21.08c0.61-0.34,1.01-1.15,0.79-1.82
	c-2.44-7.45-4.89-14.89-7.32-22.34c-1.84-5.62-3.56-11.48-6.7-16.57c-1.05-1.7-2.96-3.44-2.41-5.7c0.28-1.12,3.44-4.19,4.39-5.29
	c2.18-2.54,4.4-5.05,6.58-7.59c3.33-3.89,6.73-7.9,9.32-12.33c2.26,0.82,4.54,1.58,6.84,2.28c16.66,5.07,33.89,6.69,50.06,13.46
	c7.42,3.11,20.58,6.66,21.16,16.1c0.5,8.12-6.37,14.28-11.65,19.6c-9.17,9.23-21.97,18.79-24.85,32
	c-0.99,4.55-3.71,23.23,6.99,19.57c5.82-1.99,5.46-8.32,5.32-13.12c-0.16-5.36,1.29-8.14,4.75-12.12c2.53-2.92,5.19-5.75,7.83-8.57
	c5.61-6,12.12-11.24,17.6-17.31c3.18-3.52,5.28-7.73,6.08-12.37c2.06-11.85-4.88-21.62-14.68-27.85
	c-10.86-6.9-22.93-11.36-35.82-12.24c-15.16-1.03-28.15-6.77-41.93-11.95c0.51,0.05,1.03,0.08,1.56,0.08c0.47,0,0.55-0.63,0.12-0.77
	c-13.69-4.45-18.13-19.13-29.81-26.14c-5.37-3.22-11.47-5.29-17.31-7.53c-5.57-2.14-11.21-4.5-16.98-6.23
	c-0.27-1.93-1.34-3.95-1.92-5.69c-0.65-1.96-1.01-4.51-2.48-6.06c-0.32-0.33-0.91-0.42-1.3-0.18c-1.21,0.72-2.5,1.33-3.71,2.06
	c-4.52-10.48-22.4-6.42-28.33,1.07c-1.2-0.57-2.77-0.87-3.72-0.27c-1.62,1.01-1.71,4.63-2.05,6.27
	C1302.92,271.26,1302.52,273.24,1303.38,274.82z M1331.3,318.69c-0.39-2.43-0.75-4.89-1.17-7.34c1.28,2.97,2.86,5.84,4.65,7.99
	c1.77,2.13,4.57,4.43,6.85,5.97c0.4,0.27,0.75,0.5,1.08,0.69c0.06,0.05,0.12,0.1,0.18,0.15c0.34,3.4,0.17,6.77-0.9,10.05
	c-1.95,5.95-4.57,11.77-7.4,17.36c-1.47,2.92-3.25,5.71-4.84,8.58c0.25-3.1,0.12-6.34,0.35-8.87c0.54-6.01,2.01-11.82,2.7-17.78
	C1333.46,329.9,1332.18,324.21,1331.3,318.69z M1345.77,357.73c0.73,2.8,1.99,5.49,3.58,7.73c-2.19,0.09-4.36,0.27-6.53,0.54
	c1.72-2.18,2.13-5.25,2.84-7.83C1345.69,358.03,1345.73,357.88,1345.77,357.73z"/>
</svg>
