<svg xmlns="http://www.w3.org/2000/svg" xmlns:xlink="http://www.w3.org/1999/xlink" viewBox="0,0,256,256" width="24px" height="24px" fill-rule="nonzero"><g fill="#030d18" fill-rule="nonzero" stroke="none" stroke-width="1" stroke-linecap="butt" stroke-linejoin="miter" stroke-miterlimit="10" stroke-dasharray="" stroke-dashoffset="0" font-family="none" font-weight="none" font-size="none" text-anchor="none" style="mix-blend-mode: normal"><g transform="scale(10.66667,10.66667)"><path d="M7.13867,1c-0.828,0 -2.3703,-0.0005 -3.6543,1.6875c-2.193,2.885 -1.3265,8.49797 -1.0625,9.91797c-1.307,1.823 -1.74213,3.90116 -1.20312,5.91016c0.553,2.062 2.08069,3.7163 4.30469,4.6543c0.441,0.186 0.90205,0.32626 1.37305,0.44727c0.05,0.015 0.09648,0.03578 0.14648,0.05078c0.109,0.031 0.22884,0.04331 0.33984,0.07031c0.048,0.01 0.09553,0.0203 0.14453,0.0293c0.638,0.141 1.30672,0.23242 2.01172,0.23242c1.046,0 2.14819,-0.15584 3.24219,-0.46484c0.261,-0.073 0.50386,-0.17467 0.75586,-0.26367c0.027,-0.009 0.05503,-0.01834 0.08203,-0.02734c0.877,-0.314 1.68983,-0.71155 2.42383,-1.18555c0.036,-0.023 0.06947,-0.04827 0.10547,-0.07227c0.349,-0.232 0.67742,-0.47628 0.98242,-0.73828c0.212,-0.177 0.41537,-0.35978 0.60938,-0.55078c0.023,-0.024 0.05122,-0.04436 0.07422,-0.06836c0.016,-0.017 0.02797,-0.03378 0.04297,-0.05078c0.292,-0.297 0.57231,-0.60559 0.82031,-0.93359c1.457,-1.925 1.95339,-4.11864 1.40039,-6.18164c-0.366,-1.366 -1.19136,-2.53722 -2.31836,-3.44922c1.097,-0.034 2.15994,-0.11492 2.96094,-0.29492c1.497,-0.337 3.2793,-1.31139 3.2793,-4.02539c0,-1.484 -1.065,-3.69336 -4,-3.69336c-2.331,0 -4.47566,0.67772 -6.09766,1.38672c0.8,1.5 1.28213,3.29255 0.95313,4.81055c-0.247,1.137 -0.91559,1.97578 -1.93359,2.42578c-0.615,0.272 -1.21044,0.38672 -1.77344,0.38672c-2.819,0 -4.8638,-2.855 -4.9668,-3c-0.318,-0.453 -0.20686,-1.07653 0.24414,-1.39453c0.452,-0.318 1.07262,-0.20877 1.39063,0.24023c0.021,0.029 2.09988,2.9105 4.29687,1.9375c0.426,-0.189 0.67811,-0.51348 0.78711,-1.02148c0.241,-1.107 -0.28799,-2.85331 -1.20899,-4.19531c-0.777,-0.984 -2.55673,-2.57617 -4.55273,-2.57617zM13.34766,14.55859c0.713,0 1.389,0.08863 2,0.26563c1.168,0.337 1.95044,0.97495 2.14844,1.75195c0.144,0.566 -0.02227,1.23234 -0.44727,1.90234c-1.134,1.476 -2.86753,2.58691 -4.89453,3.12891c-1.644,0.439 -3.30497,0.45436 -4.79297,0.06836c-1.06,-0.349 -1.78175,-0.95059 -1.96875,-1.68359c-0.4,-1.574 1.63908,-4.02916 5.20508,-5.03516c0.938,-0.265 1.872,-0.39844 2.75,-0.39844zM15,16c-0.55228,0 -1,0.67157 -1,1.5c0,0.82843 0.44772,1.5 1,1.5c0.55228,0 1,-0.67157 1,-1.5c0,-0.82843 -0.44772,-1.5 -1,-1.5zM8,18c-0.55228,0 -1,0.67157 -1,1.5c0,0.82843 0.44772,1.5 1,1.5c0.55228,0 1,-0.67157 1,-1.5c0,-0.82843 -0.44772,-1.5 -1,-1.5zM12.2832,19.30273c-0.12522,-0.01277 -0.25898,-0.00838 -0.39648,0.01563c-0.55,0.096 -0.94486,0.47284 -0.88086,0.83984c0.064,0.367 0.56328,0.58623 1.11328,0.49023c0.551,-0.097 0.94486,-0.47284 0.88086,-0.83984c-0.048,-0.27525 -0.34114,-0.46756 -0.7168,-0.50586z"></path></g></g></svg>