<svg xmlns="http://www.w3.org/2000/svg" xmlns:xlink="http://www.w3.org/1999/xlink" viewBox="0,0,256,256" width="24px" height="24px" fill-rule="nonzero"><g fill="#030d18" fill-rule="nonzero" stroke="none" stroke-width="1" stroke-linecap="butt" stroke-linejoin="miter" stroke-miterlimit="10" stroke-dasharray="" stroke-dashoffset="0" font-family="none" font-weight="none" font-size="none" text-anchor="none" style="mix-blend-mode: normal"><g transform="scale(10.66667,10.66667)"><path d="M9,1c-3.165,0 -5.84208,2.112 -6.70508,5h19.46484c-0.863,-2.888 -3.54108,-5 -6.70508,-5zM2,8v4.59766c-0.601,0.558 -0.94531,1.37511 -0.94531,2.28711c0,0.855 0.35236,1.67652 0.94336,2.22851l1.02734,1.02734v0.00586l7.19336,-3.71289c1.106,-0.568 2.45659,-0.565 3.55859,0l7.22266,3.73438l1.0293,-1.03125c0.616,-0.575 0.9707,-1.39695 0.9707,-2.25195c0,-0.912 -0.34431,-1.72911 -0.94531,-2.28711v-4.59766zM5.24414,10h5.2207c0.171,0 0.24342,0.21831 0.10742,0.32031l-3.10742,2.33594c-0.622,0.468 -1.52158,0.18822 -1.76758,-0.55078l-0.62109,-1.87109c-0.039,-0.115 0.04597,-0.23437 0.16797,-0.23437zM13.5332,10h5.2207c0.122,0 0.20597,0.11937 0.16797,0.23438l-0.62109,1.87109c-0.246,0.739 -1.14458,1.01878 -1.76758,0.55078l-3.10742,-2.33594c-0.136,-0.102 -0.06358,-0.32031 0.10742,-0.32031zM12,16.00391c-0.29775,0 -0.59523,0.06998 -0.86523,0.20898l-7.48242,3.85938l0.20703,0.33984c1.225,2.148 2.64448,2.58789 4.39648,2.58789h0.74414c1.304,0 2.41512,-0.836 2.82813,-2h0.34375c0.413,1.164 1.52608,2 2.83008,2h0.74219c1.751,0 3.16891,-0.4395 4.37891,-2.5625l0.21875,-0.35937l-7.48047,-3.86719c-0.267,-0.138 -0.56358,-0.20703 -0.86133,-0.20703z"></path></g></g></svg>